G04 ================== begin FILE IDENTIFICATION RECORD ==================*
G04 Layout Name:  C:/USERS/PETRU/DESKTOP/TRANSFER_PCB/allegro/AAF_TRANSFER_PCB.brd*
G04 Film Name:    BOTTOM*
G04 File Format:  Gerber RS274X*
G04 File Origin:  Cadence Allegro 16.6-2015-S059*
G04 Origin Date:  Wed Dec 15 15:13:45 2021*
G04 *
G04 Layer:  ETCH/BOTTOM*
G04 Layer:  PIN/BOTTOM*
G04 Layer:  VIA CLASS/BOTTOM*
G04 *
G04 Offset:    (0.00 0.00)*
G04 Mirror:    No*
G04 Mode:      Positive*
G04 Rotation:  0*
G04 FullContactRelief:  No*
G04 UndefLineWidth:     8.00*
G04 ================== end FILE IDENTIFICATION RECORD ====================*
%FSLAX25Y25*MOIN*%
%IR0*IPPOS*OFA0.00000B0.00000*MIA0B0*SFA1.00000B1.00000*%
%ADD10C,.024*%
%ADD11C,.02*%
%ADD12C,.016*%
G75*
%LPD*%
G75*
G54D10*
X40600Y36800D03*
X34300Y113000D03*
X58400Y17400D03*
Y27600D03*
X66400Y36800D03*
X61000Y50100D03*
X45850Y83750D03*
X68759Y120022D03*
X84200Y36800D03*
X81500Y99300D03*
X93950Y119550D03*
X105000Y13600D03*
X109200Y39473D03*
X111250Y62250D03*
X105000Y62200D03*
X111500Y80200D03*
X104200Y103000D03*
X135050Y30500D03*
X149800Y64700D03*
X140600Y135100D03*
G54D11*
G01X93950Y119550D02*
X97300Y116200D01*
Y105000D01*
X99300Y103000D01*
X104200D01*
G01X105000Y13600D02*
Y62200D01*
G01X111500Y80200D02*
X113410Y78290D01*
Y74190D01*
X114900Y72700D01*
X132500D01*
X136500Y68700D01*
Y56300D01*
X135050Y54850D01*
Y30500D01*
G01X140600Y135100D02*
X145600Y130100D01*
Y114500D01*
X153400Y106700D01*
Y68300D01*
X149800Y64700D01*
G54D12*
G01X40600Y36800D02*
X66400D01*
G01X45850Y83750D02*
X51150D01*
X53000Y85600D01*
Y105400D01*
X51200Y107200D01*
X36000D01*
X34300Y108900D01*
Y113000D01*
G01X58400Y27600D02*
Y17400D01*
G01X84200Y36800D02*
X66400D01*
G01X61000Y50100D02*
Y53100D01*
X62900Y55000D01*
X79800D01*
X81500Y56700D01*
Y99300D01*
G01X68759Y120022D02*
X66022D01*
X64800Y118800D01*
Y101100D01*
X66600Y99300D01*
X81500D01*
G01X109200Y39473D02*
X112700D01*
X114300Y41073D01*
Y59200D01*
X111250Y62250D01*
M02*
