G04 ================== begin FILE IDENTIFICATION RECORD ==================*
G04 Layout Name:  C:/USERS/PETRU/DESKTOP/TRANSFER_PCB/allegro/AAF_TRANSFER_PCB.brd*
G04 Film Name:    SMTOP*
G04 File Format:  Gerber RS274X*
G04 File Origin:  Cadence Allegro 16.6-2015-S059*
G04 Origin Date:  Wed Dec 15 15:14:02 2021*
G04 *
G04 Layer:  VIA CLASS/SOLDERMASK_TOP*
G04 Layer:  PIN/SOLDERMASK_TOP*
G04 Layer:  DRC ERROR CLASS/SOLDERMASK_TOP*
G04 *
G04 Offset:    (0.00 0.00)*
G04 Mirror:    No*
G04 Mode:      Positive*
G04 Rotation:  0*
G04 FullContactRelief:  No*
G04 UndefLineWidth:     8.00*
G04 ================== end FILE IDENTIFICATION RECORD ====================*
%FSLAX25Y25*MOIN*%
%IR0*IPPOS*OFA0.00000B0.00000*MIA0B0*SFA1.00000B1.00000*%
%ADD21R,.13X.081*%
%ADD10R,.13X.086*%
%ADD12C,.05*%
%ADD16C,.034*%
%ADD13R,.06X.06*%
%ADD17R,.062X.062*%
%ADD18R,.09X.09*%
%ADD15R,.046X.06*%
%ADD19R,.06X.046*%
%ADD14R,.09X.062*%
%ADD20R,.062X.09*%
%ADD11R,.086X.058*%
%LPD*%
G75*
G54D10*
X13800Y53000D03*
Y76600D03*
X146400Y30500D03*
Y54100D03*
X144400Y76700D03*
Y100300D03*
G54D11*
X30000Y15900D03*
Y23800D03*
Y34100D03*
Y42000D03*
X62500Y131000D03*
Y138900D03*
X121200Y10900D03*
Y18800D03*
X131300Y136800D03*
Y144700D03*
G54D20*
X77500Y75800D03*
G54D12*
X14200Y14200D03*
X145800Y145800D03*
G54D21*
X146300Y18200D03*
G54D13*
X17600Y33600D03*
Y42000D03*
X31300Y148700D03*
Y140300D03*
X67900Y10800D03*
X58400D03*
X50000D03*
X50200Y30900D03*
Y22500D03*
X70300Y60700D03*
X61900D03*
Y91000D03*
X70300D03*
X60200Y105100D03*
Y113500D03*
X49900Y148700D03*
Y140300D03*
X85800Y10800D03*
X94200D03*
X76300D03*
X76200Y30900D03*
Y22500D03*
X93800Y30900D03*
Y22500D03*
X128400Y28100D03*
X120000D03*
Y54900D03*
Y46500D03*
Y37300D03*
X128400D03*
X118900Y89200D03*
X127300D03*
X118900Y78200D03*
X127300D03*
X118900Y67200D03*
X127300D03*
X117900Y117000D03*
X129100Y100300D03*
X120700D03*
X131300Y116100D03*
X117900Y125400D03*
X131300Y125800D03*
X139700Y116100D03*
Y125800D03*
G54D14*
X32700Y61200D03*
G54D15*
X42000Y42000D03*
X42300Y91100D03*
X20000D03*
X28200D03*
X38200Y99200D03*
X24100D03*
X72100Y50100D03*
X68000Y42000D03*
X46100Y50100D03*
X50200Y42000D03*
X72400Y113500D03*
X68300Y105400D03*
X46400Y99200D03*
X89700Y50100D03*
X85600Y42000D03*
X93800D03*
X76200D03*
X100300Y70600D03*
X100100Y86100D03*
X89500D03*
X85400Y78000D03*
X93600D03*
X88500Y113600D03*
X84400Y105500D03*
X92600D03*
X76500Y105400D03*
X104400Y78700D03*
X108500Y70600D03*
X108300Y86100D03*
X104200Y94200D03*
G54D16*
X40600Y36800D03*
X34300Y113000D03*
X58400Y17400D03*
Y27600D03*
X66400Y36800D03*
X61000Y50100D03*
X45850Y83750D03*
X68759Y120022D03*
X84200Y36800D03*
X81500Y99300D03*
X93950Y119550D03*
X105000Y13600D03*
X109200Y39473D03*
X111250Y62250D03*
X105000Y62200D03*
X111500Y80200D03*
X104200Y103000D03*
X135050Y30500D03*
X149800Y64700D03*
X140600Y135100D03*
G54D17*
X37300Y83400D03*
X28200D03*
X55300Y80400D03*
Y71300D03*
G54D18*
X24100Y108400D03*
X43400Y113000D03*
G54D19*
X41800Y127400D03*
X23200D03*
X31300Y123300D03*
Y131500D03*
X49900Y123300D03*
Y131500D03*
X101100Y50600D03*
X101000Y121300D03*
X109200Y46500D03*
Y54700D03*
X109100Y117200D03*
Y125400D03*
M02*
