G04 ================== begin FILE IDENTIFICATION RECORD ==================*
G04 Layout Name:  C:/USERS/PETRU/DESKTOP/TRANSFER_PCB/allegro/AAF_TRANSFER_PCB.brd*
G04 Film Name:    SSTOP*
G04 File Format:  Gerber RS274X*
G04 File Origin:  Cadence Allegro 16.6-2015-S059*
G04 Origin Date:  Wed Dec 15 15:16:54 2021*
G04 *
G04 Layer:  REF DES/SILKSCREEN_TOP*
G04 Layer:  PACKAGE GEOMETRY/SILKSCREEN_TOP*
G04 *
G04 Offset:    (0.00 0.00)*
G04 Mirror:    No*
G04 Mode:      Positive*
G04 Rotation:  0*
G04 FullContactRelief:  No*
G04 UndefLineWidth:     8.00*
G04 ================== end FILE IDENTIFICATION RECORD ====================*
%FSLAX25Y25*MOIN*%
%IR0*IPPOS*OFA0.00000B0.00000*MIA0B0*SFA1.00000B1.00000*%
%ADD10C,.004*%
%ADD11C,.006*%
G75*
%LPD*%
G75*
G54D10*
G01X7067Y36300D02*
Y38800D01*
X7733D01*
X7947Y38675D01*
X8080Y38508D01*
X8133Y38175D01*
X8080Y37842D01*
X7920Y37633D01*
X7733Y37508D01*
X7067D01*
G01X7733D02*
X8133Y36300D01*
G01X9800D02*
Y38800D01*
X9480Y38300D01*
G01Y36300D02*
X10120D01*
G01X11413Y36675D02*
X11573Y36467D01*
X11760Y36342D01*
X12000Y36300D01*
X12240Y36383D01*
X12427Y36550D01*
X12560Y36842D01*
X12587Y37175D01*
X12533Y37508D01*
X12400Y37717D01*
X12213Y37883D01*
X12027Y37925D01*
X11840Y37883D01*
X11600Y37717D01*
X11680Y38800D01*
X12400D01*
G01X20113Y13900D02*
Y16400D01*
X20647D01*
X20860Y16275D01*
X21020Y16108D01*
X21153Y15858D01*
X21260Y15567D01*
X21287Y15150D01*
X21260Y14733D01*
X21153Y14442D01*
X21020Y14192D01*
X20860Y14025D01*
X20647Y13900D01*
X20113D01*
G01X22393Y15983D02*
X22553Y16233D01*
X22740Y16358D01*
X22953Y16400D01*
X23220Y16317D01*
X23407Y16108D01*
X23460Y15858D01*
X23433Y15608D01*
X23327Y15400D01*
X22793Y14983D01*
X22553Y14692D01*
X22393Y14275D01*
X22340Y13900D01*
X23460D01*
G01X28613Y47000D02*
Y49500D01*
X29147D01*
X29360Y49375D01*
X29520Y49208D01*
X29653Y48958D01*
X29760Y48667D01*
X29787Y48250D01*
X29760Y47833D01*
X29653Y47542D01*
X29520Y47292D01*
X29360Y47125D01*
X29147Y47000D01*
X28613D01*
G01X31400D02*
Y49500D01*
X31080Y49000D01*
G01Y47000D02*
X31720D01*
G01X23167Y58600D02*
Y61100D01*
X23833D01*
X24047Y60975D01*
X24180Y60808D01*
X24233Y60475D01*
X24180Y60142D01*
X24020Y59933D01*
X23833Y59808D01*
X23167D01*
G01X23833D02*
X24233Y58600D01*
G01X25393Y59642D02*
X25580Y59933D01*
X25740Y60100D01*
X25953Y60183D01*
X26140Y60100D01*
X26273Y59933D01*
X26380Y59683D01*
X26407Y59392D01*
X26380Y59142D01*
X26273Y58892D01*
X26113Y58683D01*
X25927Y58600D01*
X25713Y58683D01*
X25527Y58933D01*
X25420Y59308D01*
X25393Y59725D01*
X25447Y60267D01*
X25527Y60558D01*
X25660Y60850D01*
X25847Y61058D01*
X26033Y61100D01*
X26220Y61017D01*
X26353Y60808D01*
G01X39200Y50100D02*
X38987Y50142D01*
X38800Y50308D01*
X38640Y50558D01*
X38533Y50850D01*
X38480Y51183D01*
Y51517D01*
X38533Y51850D01*
X38640Y52142D01*
X38800Y52392D01*
X38987Y52558D01*
X39200Y52600D01*
X39413Y52558D01*
X39600Y52392D01*
X39760Y52142D01*
X39867Y51850D01*
X39920Y51517D01*
Y51183D01*
X39867Y50850D01*
X39760Y50558D01*
X39600Y50308D01*
X39413Y50142D01*
X39200Y50100D01*
G01X39413Y50767D02*
X39733Y50100D01*
G01X41347D02*
X41400Y50642D01*
X41480Y51100D01*
X41587Y51517D01*
X41720Y51975D01*
X41933Y52600D01*
X40867D01*
G01X10933Y65900D02*
X11600Y63400D01*
X12267Y65900D01*
G01X13480D02*
X14120D01*
G01X13800D02*
Y63400D01*
G01X13480D02*
X14120D01*
G01X15387D02*
Y65900D01*
X16613Y63400D01*
Y65900D01*
G01X21800Y117100D02*
Y114600D01*
G01X21187Y117100D02*
X22413D01*
G01X23440Y114933D02*
X23653Y114725D01*
X23893Y114600D01*
X24107D01*
X24320Y114725D01*
X24480Y114933D01*
X24560Y115225D01*
X24507Y115517D01*
X24373Y115767D01*
X24133Y115933D01*
X23813Y116017D01*
X23627Y116183D01*
X23547Y116475D01*
X23600Y116767D01*
X23733Y116975D01*
X23920Y117100D01*
X24107D01*
X24293Y117017D01*
X24453Y116808D01*
G01X26200Y114600D02*
Y117100D01*
X25880Y116600D01*
G01Y114600D02*
X26520D01*
G01X16600Y99700D02*
X16387Y99742D01*
X16200Y99908D01*
X16040Y100158D01*
X15933Y100450D01*
X15880Y100783D01*
Y101117D01*
X15933Y101450D01*
X16040Y101742D01*
X16200Y101992D01*
X16387Y102158D01*
X16600Y102200D01*
X16813Y102158D01*
X17000Y101992D01*
X17160Y101742D01*
X17267Y101450D01*
X17320Y101117D01*
Y100783D01*
X17267Y100450D01*
X17160Y100158D01*
X17000Y99908D01*
X16813Y99742D01*
X16600Y99700D01*
G01X16813Y100367D02*
X17133Y99700D01*
G01X18800D02*
Y102200D01*
X18480Y101700D01*
G01Y99700D02*
X19120D01*
G01X22867Y147600D02*
Y150100D01*
X23533D01*
X23747Y149975D01*
X23880Y149808D01*
X23933Y149475D01*
X23880Y149142D01*
X23720Y148933D01*
X23533Y148808D01*
X22867D01*
G01X23533D02*
X23933Y147600D01*
G01X25920D02*
Y150100D01*
X24933Y148308D01*
X26267D01*
G01X38700Y131400D02*
X38487Y131442D01*
X38300Y131608D01*
X38140Y131858D01*
X38033Y132150D01*
X37980Y132483D01*
Y132817D01*
X38033Y133150D01*
X38140Y133442D01*
X38300Y133692D01*
X38487Y133858D01*
X38700Y133900D01*
X38913Y133858D01*
X39100Y133692D01*
X39260Y133442D01*
X39367Y133150D01*
X39420Y132817D01*
Y132483D01*
X39367Y132150D01*
X39260Y131858D01*
X39100Y131608D01*
X38913Y131442D01*
X38700Y131400D01*
G01X38913Y132067D02*
X39233Y131400D01*
G01X40393Y132442D02*
X40580Y132733D01*
X40740Y132900D01*
X40953Y132983D01*
X41140Y132900D01*
X41273Y132733D01*
X41380Y132483D01*
X41407Y132192D01*
X41380Y131942D01*
X41273Y131692D01*
X41113Y131483D01*
X40927Y131400D01*
X40713Y131483D01*
X40527Y131733D01*
X40420Y132108D01*
X40393Y132525D01*
X40447Y133067D01*
X40527Y133358D01*
X40660Y133650D01*
X40847Y133858D01*
X41033Y133900D01*
X41220Y133817D01*
X41353Y133608D01*
G01X20000Y131500D02*
X19787Y131542D01*
X19600Y131708D01*
X19440Y131958D01*
X19333Y132250D01*
X19280Y132583D01*
Y132917D01*
X19333Y133250D01*
X19440Y133542D01*
X19600Y133792D01*
X19787Y133958D01*
X20000Y134000D01*
X20213Y133958D01*
X20400Y133792D01*
X20560Y133542D01*
X20667Y133250D01*
X20720Y132917D01*
Y132583D01*
X20667Y132250D01*
X20560Y131958D01*
X20400Y131708D01*
X20213Y131542D01*
X20000Y131500D01*
G01X20213Y132167D02*
X20533Y131500D01*
G01X21613Y131875D02*
X21773Y131667D01*
X21960Y131542D01*
X22200Y131500D01*
X22440Y131583D01*
X22627Y131750D01*
X22760Y132042D01*
X22787Y132375D01*
X22733Y132708D01*
X22600Y132917D01*
X22413Y133083D01*
X22227Y133125D01*
X22040Y133083D01*
X21800Y132917D01*
X21880Y134000D01*
X22600D01*
G01X65867Y16000D02*
Y18500D01*
X66533D01*
X66747Y18375D01*
X66880Y18208D01*
X66933Y17875D01*
X66880Y17542D01*
X66720Y17333D01*
X66533Y17208D01*
X65867D01*
G01X66533D02*
X66933Y16000D01*
G01X68093Y18083D02*
X68253Y18333D01*
X68440Y18458D01*
X68653Y18500D01*
X68920Y18417D01*
X69107Y18208D01*
X69160Y17958D01*
X69133Y17708D01*
X69027Y17500D01*
X68493Y17083D01*
X68253Y16792D01*
X68093Y16375D01*
X68040Y16000D01*
X69160D01*
G01X40767Y9600D02*
Y12100D01*
X41433D01*
X41647Y11975D01*
X41780Y11808D01*
X41833Y11475D01*
X41780Y11142D01*
X41620Y10933D01*
X41433Y10808D01*
X40767D01*
G01X41433D02*
X41833Y9600D01*
G01X42913Y10100D02*
X43073Y9808D01*
X43287Y9642D01*
X43527Y9600D01*
X43740Y9642D01*
X43953Y9850D01*
X44087Y10100D01*
X44113Y10350D01*
X44060Y10642D01*
X43873Y10850D01*
X43687Y10933D01*
X43447D01*
G01X43687D02*
X43847Y11058D01*
X43980Y11267D01*
X44033Y11517D01*
X43980Y11767D01*
X43847Y11975D01*
X43607Y12100D01*
X43367Y12058D01*
X43127Y11892D01*
G01X40967Y25300D02*
Y27800D01*
X41633D01*
X41847Y27675D01*
X41980Y27508D01*
X42033Y27175D01*
X41980Y26842D01*
X41820Y26633D01*
X41633Y26508D01*
X40967D01*
G01X41633D02*
X42033Y25300D01*
G01X43647D02*
X43700Y25842D01*
X43780Y26300D01*
X43887Y26717D01*
X44020Y27175D01*
X44233Y27800D01*
X43167D01*
G01X67067Y25700D02*
Y28200D01*
X67733D01*
X67947Y28075D01*
X68080Y27908D01*
X68133Y27575D01*
X68080Y27242D01*
X67920Y27033D01*
X67733Y26908D01*
X67067D01*
G01X67733D02*
X68133Y25700D01*
G01X69800D02*
X69987Y25742D01*
X70200Y25867D01*
X70333Y26075D01*
X70387Y26367D01*
X70333Y26658D01*
X70173Y26908D01*
X69933Y27033D01*
X69667D01*
X69507Y27117D01*
X69373Y27325D01*
X69320Y27617D01*
X69400Y27908D01*
X69587Y28117D01*
X69800Y28200D01*
X70013Y28117D01*
X70200Y27908D01*
X70280Y27617D01*
X70227Y27325D01*
X70093Y27117D01*
X69933Y27033D01*
X69667D01*
X69427Y26908D01*
X69267Y26658D01*
X69213Y26367D01*
X69267Y26075D01*
X69400Y25867D01*
X69613Y25742D01*
X69800Y25700D01*
G01X58467Y53200D02*
Y55700D01*
X59133D01*
X59347Y55575D01*
X59480Y55408D01*
X59533Y55075D01*
X59480Y54742D01*
X59320Y54533D01*
X59133Y54408D01*
X58467D01*
G01X59133D02*
X59533Y53200D01*
G01X61200D02*
Y55700D01*
X60880Y55200D01*
G01Y53200D02*
X61520D01*
G01X63720D02*
Y55700D01*
X62733Y53908D01*
X64067D01*
G01X47000Y88600D02*
X46787Y88642D01*
X46600Y88808D01*
X46440Y89058D01*
X46333Y89350D01*
X46280Y89683D01*
Y90017D01*
X46333Y90350D01*
X46440Y90642D01*
X46600Y90892D01*
X46787Y91058D01*
X47000Y91100D01*
X47213Y91058D01*
X47400Y90892D01*
X47560Y90642D01*
X47667Y90350D01*
X47720Y90017D01*
Y89683D01*
X47667Y89350D01*
X47560Y89058D01*
X47400Y88808D01*
X47213Y88642D01*
X47000Y88600D01*
G01X47213Y89267D02*
X47533Y88600D01*
G01X48693Y90683D02*
X48853Y90933D01*
X49040Y91058D01*
X49253Y91100D01*
X49520Y91017D01*
X49707Y90808D01*
X49760Y90558D01*
X49733Y90308D01*
X49627Y90100D01*
X49093Y89683D01*
X48853Y89392D01*
X48693Y88975D01*
X48640Y88600D01*
X49760D01*
G01X53287Y112092D02*
X53127Y112217D01*
X52940Y112300D01*
X52727D01*
X52487Y112175D01*
X52300Y111967D01*
X52167Y111717D01*
X52060Y111300D01*
X52033Y110925D01*
X52087Y110550D01*
X52167Y110300D01*
X52327Y110050D01*
X52513Y109883D01*
X52700Y109800D01*
X52887D01*
X53073Y109883D01*
X53233Y110008D01*
X53367Y110175D01*
G01X54900Y109800D02*
Y112300D01*
X54580Y111800D01*
G01Y109800D02*
X55220D01*
G01X58967Y95900D02*
Y98400D01*
X59633D01*
X59847Y98275D01*
X59980Y98108D01*
X60033Y97775D01*
X59980Y97442D01*
X59820Y97233D01*
X59633Y97108D01*
X58967D01*
G01X59633D02*
X60033Y95900D01*
G01X61700D02*
Y98400D01*
X61380Y97900D01*
G01Y95900D02*
X62020D01*
G01X63393Y97983D02*
X63553Y98233D01*
X63740Y98358D01*
X63953Y98400D01*
X64220Y98317D01*
X64407Y98108D01*
X64460Y97858D01*
X64433Y97608D01*
X64327Y97400D01*
X63793Y96983D01*
X63553Y96692D01*
X63393Y96275D01*
X63340Y95900D01*
X64460D01*
G01X41200Y107100D02*
Y104600D01*
G01X40587Y107100D02*
X41813D01*
G01X42840Y104933D02*
X43053Y104725D01*
X43293Y104600D01*
X43507D01*
X43720Y104725D01*
X43880Y104933D01*
X43960Y105225D01*
X43907Y105517D01*
X43773Y105767D01*
X43533Y105933D01*
X43213Y106017D01*
X43027Y106183D01*
X42947Y106475D01*
X43000Y106767D01*
X43133Y106975D01*
X43320Y107100D01*
X43507D01*
X43693Y107017D01*
X43853Y106808D01*
G01X45093Y106683D02*
X45253Y106933D01*
X45440Y107058D01*
X45653Y107100D01*
X45920Y107017D01*
X46107Y106808D01*
X46160Y106558D01*
X46133Y106308D01*
X46027Y106100D01*
X45493Y105683D01*
X45253Y105392D01*
X45093Y104975D01*
X45040Y104600D01*
X46160D01*
G01X61313Y143800D02*
Y146300D01*
X61847D01*
X62060Y146175D01*
X62220Y146008D01*
X62353Y145758D01*
X62460Y145467D01*
X62487Y145050D01*
X62460Y144633D01*
X62353Y144342D01*
X62220Y144092D01*
X62060Y143925D01*
X61847Y143800D01*
X61313D01*
G01X63513Y144300D02*
X63673Y144008D01*
X63887Y143842D01*
X64127Y143800D01*
X64340Y143842D01*
X64553Y144050D01*
X64687Y144300D01*
X64713Y144550D01*
X64660Y144842D01*
X64473Y145050D01*
X64287Y145133D01*
X64047D01*
G01X64287D02*
X64447Y145258D01*
X64580Y145467D01*
X64633Y145717D01*
X64580Y145967D01*
X64447Y146175D01*
X64207Y146300D01*
X63967Y146258D01*
X63727Y146092D01*
G01X55367Y147400D02*
Y149900D01*
X56033D01*
X56247Y149775D01*
X56380Y149608D01*
X56433Y149275D01*
X56380Y148942D01*
X56220Y148733D01*
X56033Y148608D01*
X55367D01*
G01X56033D02*
X56433Y147400D01*
G01X57513Y147775D02*
X57673Y147567D01*
X57860Y147442D01*
X58100Y147400D01*
X58340Y147483D01*
X58527Y147650D01*
X58660Y147942D01*
X58687Y148275D01*
X58633Y148608D01*
X58500Y148817D01*
X58313Y148983D01*
X58127Y149025D01*
X57940Y148983D01*
X57700Y148817D01*
X57780Y149900D01*
X58500D01*
G01X84367Y16100D02*
Y18600D01*
X85033D01*
X85247Y18475D01*
X85380Y18308D01*
X85433Y17975D01*
X85380Y17642D01*
X85220Y17433D01*
X85033Y17308D01*
X84367D01*
G01X85033D02*
X85433Y16100D01*
G01X87100D02*
Y18600D01*
X86780Y18100D01*
G01Y16100D02*
X87420D01*
G01X84967Y25400D02*
Y27900D01*
X85633D01*
X85847Y27775D01*
X85980Y27608D01*
X86033Y27275D01*
X85980Y26942D01*
X85820Y26733D01*
X85633Y26608D01*
X84967D01*
G01X85633D02*
X86033Y25400D01*
G01X87247Y25692D02*
X87433Y25483D01*
X87647Y25400D01*
X87860Y25483D01*
X88047Y25733D01*
X88180Y26108D01*
X88233Y26483D01*
Y26942D01*
X88180Y27317D01*
X88047Y27650D01*
X87887Y27817D01*
X87700Y27900D01*
X87487Y27817D01*
X87327Y27650D01*
X87220Y27400D01*
X87167Y27067D01*
X87220Y26775D01*
X87353Y26483D01*
X87513Y26317D01*
X87700Y26275D01*
X87913Y26358D01*
X88073Y26567D01*
X88233Y26942D01*
G01X95700Y54700D02*
X95487Y54742D01*
X95300Y54908D01*
X95140Y55158D01*
X95033Y55450D01*
X94980Y55783D01*
Y56117D01*
X95033Y56450D01*
X95140Y56742D01*
X95300Y56992D01*
X95487Y57158D01*
X95700Y57200D01*
X95913Y57158D01*
X96100Y56992D01*
X96260Y56742D01*
X96367Y56450D01*
X96420Y56117D01*
Y55783D01*
X96367Y55450D01*
X96260Y55158D01*
X96100Y54908D01*
X95913Y54742D01*
X95700Y54700D01*
G01X95913Y55367D02*
X96233Y54700D01*
G01X97900D02*
Y57200D01*
X97580Y56700D01*
G01Y54700D02*
X98220D01*
G01X99593Y56783D02*
X99753Y57033D01*
X99940Y57158D01*
X100153Y57200D01*
X100420Y57117D01*
X100607Y56908D01*
X100660Y56658D01*
X100633Y56408D01*
X100527Y56200D01*
X99993Y55783D01*
X99753Y55492D01*
X99593Y55075D01*
X99540Y54700D01*
X100660D01*
G01X83300Y50300D02*
X83087Y50342D01*
X82900Y50508D01*
X82740Y50758D01*
X82633Y51050D01*
X82580Y51383D01*
Y51717D01*
X82633Y52050D01*
X82740Y52342D01*
X82900Y52592D01*
X83087Y52758D01*
X83300Y52800D01*
X83513Y52758D01*
X83700Y52592D01*
X83860Y52342D01*
X83967Y52050D01*
X84020Y51717D01*
Y51383D01*
X83967Y51050D01*
X83860Y50758D01*
X83700Y50508D01*
X83513Y50342D01*
X83300Y50300D01*
G01X83513Y50967D02*
X83833Y50300D01*
G01X85047Y50592D02*
X85233Y50383D01*
X85447Y50300D01*
X85660Y50383D01*
X85847Y50633D01*
X85980Y51008D01*
X86033Y51383D01*
Y51842D01*
X85980Y52217D01*
X85847Y52550D01*
X85687Y52717D01*
X85500Y52800D01*
X85287Y52717D01*
X85127Y52550D01*
X85020Y52300D01*
X84967Y51967D01*
X85020Y51675D01*
X85153Y51383D01*
X85313Y51217D01*
X85500Y51175D01*
X85713Y51258D01*
X85873Y51467D01*
X86033Y51842D01*
G01X77000Y50200D02*
X76787Y50242D01*
X76600Y50408D01*
X76440Y50658D01*
X76333Y50950D01*
X76280Y51283D01*
Y51617D01*
X76333Y51950D01*
X76440Y52242D01*
X76600Y52492D01*
X76787Y52658D01*
X77000Y52700D01*
X77213Y52658D01*
X77400Y52492D01*
X77560Y52242D01*
X77667Y51950D01*
X77720Y51617D01*
Y51283D01*
X77667Y50950D01*
X77560Y50658D01*
X77400Y50408D01*
X77213Y50242D01*
X77000Y50200D01*
G01X77213Y50867D02*
X77533Y50200D01*
G01X79200D02*
X79387Y50242D01*
X79600Y50367D01*
X79733Y50575D01*
X79787Y50867D01*
X79733Y51158D01*
X79573Y51408D01*
X79333Y51533D01*
X79067D01*
X78907Y51617D01*
X78773Y51825D01*
X78720Y52117D01*
X78800Y52408D01*
X78987Y52617D01*
X79200Y52700D01*
X79413Y52617D01*
X79600Y52408D01*
X79680Y52117D01*
X79627Y51825D01*
X79493Y51617D01*
X79333Y51533D01*
X79067D01*
X78827Y51408D01*
X78667Y51158D01*
X78613Y50867D01*
X78667Y50575D01*
X78800Y50367D01*
X79013Y50242D01*
X79200Y50200D01*
G01X77567Y66900D02*
Y69400D01*
X78233D01*
X78447Y69275D01*
X78580Y69108D01*
X78633Y68775D01*
X78580Y68442D01*
X78420Y68233D01*
X78233Y68108D01*
X77567D01*
G01X78233D02*
X78633Y66900D01*
G01X80300D02*
Y69400D01*
X79980Y68900D01*
G01Y66900D02*
X80620D01*
G01X81913Y67400D02*
X82073Y67108D01*
X82287Y66942D01*
X82527Y66900D01*
X82740Y66942D01*
X82953Y67150D01*
X83087Y67400D01*
X83113Y67650D01*
X83060Y67942D01*
X82873Y68150D01*
X82687Y68233D01*
X82447D01*
G01X82687D02*
X82847Y68358D01*
X82980Y68567D01*
X83033Y68817D01*
X82980Y69067D01*
X82847Y69275D01*
X82607Y69400D01*
X82367Y69358D01*
X82127Y69192D01*
G01X95000Y63400D02*
X94787Y63442D01*
X94600Y63608D01*
X94440Y63858D01*
X94333Y64150D01*
X94280Y64483D01*
Y64817D01*
X94333Y65150D01*
X94440Y65442D01*
X94600Y65692D01*
X94787Y65858D01*
X95000Y65900D01*
X95213Y65858D01*
X95400Y65692D01*
X95560Y65442D01*
X95667Y65150D01*
X95720Y64817D01*
Y64483D01*
X95667Y64150D01*
X95560Y63858D01*
X95400Y63608D01*
X95213Y63442D01*
X95000Y63400D01*
G01X95213Y64067D02*
X95533Y63400D01*
G01X97200D02*
Y65900D01*
X96880Y65400D01*
G01Y63400D02*
X97520D01*
G01X99720D02*
Y65900D01*
X98733Y64108D01*
X100067D01*
G01X80400Y86500D02*
X80187Y86542D01*
X80000Y86708D01*
X79840Y86958D01*
X79733Y87250D01*
X79680Y87583D01*
Y87917D01*
X79733Y88250D01*
X79840Y88542D01*
X80000Y88792D01*
X80187Y88958D01*
X80400Y89000D01*
X80613Y88958D01*
X80800Y88792D01*
X80960Y88542D01*
X81067Y88250D01*
X81120Y87917D01*
Y87583D01*
X81067Y87250D01*
X80960Y86958D01*
X80800Y86708D01*
X80613Y86542D01*
X80400Y86500D01*
G01X80613Y87167D02*
X80933Y86500D01*
G01X82600D02*
Y89000D01*
X82280Y88500D01*
G01Y86500D02*
X82920D01*
G01X84800Y89000D02*
X84587Y88917D01*
X84427Y88708D01*
X84320Y88458D01*
X84240Y88125D01*
X84213Y87750D01*
X84240Y87375D01*
X84320Y87042D01*
X84427Y86792D01*
X84587Y86583D01*
X84800Y86500D01*
X85013Y86583D01*
X85173Y86792D01*
X85280Y87042D01*
X85360Y87375D01*
X85387Y87750D01*
X85360Y88125D01*
X85280Y88458D01*
X85173Y88708D01*
X85013Y88917D01*
X84800Y89000D01*
G01X97900Y108300D02*
X97687Y108342D01*
X97500Y108508D01*
X97340Y108758D01*
X97233Y109050D01*
X97180Y109383D01*
Y109717D01*
X97233Y110050D01*
X97340Y110342D01*
X97500Y110592D01*
X97687Y110758D01*
X97900Y110800D01*
X98113Y110758D01*
X98300Y110592D01*
X98460Y110342D01*
X98567Y110050D01*
X98620Y109717D01*
Y109383D01*
X98567Y109050D01*
X98460Y108758D01*
X98300Y108508D01*
X98113Y108342D01*
X97900Y108300D01*
G01X98113Y108967D02*
X98433Y108300D01*
G01X100420D02*
Y110800D01*
X99433Y109008D01*
X100767D01*
G01X76600Y113900D02*
X76387Y113942D01*
X76200Y114108D01*
X76040Y114358D01*
X75933Y114650D01*
X75880Y114983D01*
Y115317D01*
X75933Y115650D01*
X76040Y115942D01*
X76200Y116192D01*
X76387Y116358D01*
X76600Y116400D01*
X76813Y116358D01*
X77000Y116192D01*
X77160Y115942D01*
X77267Y115650D01*
X77320Y115317D01*
Y114983D01*
X77267Y114650D01*
X77160Y114358D01*
X77000Y114108D01*
X76813Y113942D01*
X76600Y113900D01*
G01X76813Y114567D02*
X77133Y113900D01*
G01X78213Y114400D02*
X78373Y114108D01*
X78587Y113942D01*
X78827Y113900D01*
X79040Y113942D01*
X79253Y114150D01*
X79387Y114400D01*
X79413Y114650D01*
X79360Y114942D01*
X79173Y115150D01*
X78987Y115233D01*
X78747D01*
G01X78987D02*
X79147Y115358D01*
X79280Y115567D01*
X79333Y115817D01*
X79280Y116067D01*
X79147Y116275D01*
X78907Y116400D01*
X78667Y116358D01*
X78427Y116192D01*
G01X78622Y147300D02*
Y150400D01*
X80078D01*
G01X79542Y148902D02*
X78622D01*
G01X81750Y147300D02*
Y150400D01*
G01X84150Y147300D02*
X83920Y147352D01*
X83690Y147558D01*
X83537Y147920D01*
X83460Y148333D01*
X83537Y148747D01*
X83690Y149108D01*
X83920Y149315D01*
X84150Y149367D01*
X84380Y149315D01*
X84610Y149108D01*
X84763Y148747D01*
X84802Y148333D01*
X84763Y147920D01*
X84610Y147558D01*
X84380Y147352D01*
X84150Y147300D01*
G01X86013D02*
Y149367D01*
G01Y148953D02*
X86205Y149160D01*
X86397Y149315D01*
X86665Y149367D01*
X86857Y149315D01*
X87087Y149160D01*
G01X88375Y148695D02*
X89602D01*
X89487Y149057D01*
X89295Y149263D01*
X89027Y149367D01*
X88758Y149315D01*
X88528Y149160D01*
X88375Y148798D01*
X88298Y148488D01*
Y148178D01*
X88375Y147868D01*
X88567Y147558D01*
X88797Y147352D01*
X89065Y147300D01*
X89333Y147403D01*
X89602Y147713D01*
G01X92040Y147300D02*
Y149367D01*
G01Y149005D02*
X91887Y149212D01*
X91657Y149315D01*
X91388Y149367D01*
X91120Y149263D01*
X90890Y149057D01*
X90737Y148747D01*
X90660Y148333D01*
X90737Y147920D01*
X90890Y147610D01*
X91120Y147403D01*
X91388Y147300D01*
X91657Y147352D01*
X91887Y147507D01*
X92040Y147713D01*
G01X95383Y147300D02*
Y150400D01*
X96303D01*
X96610Y150245D01*
X96840Y149883D01*
X96917Y149470D01*
X96840Y149057D01*
X96648Y148747D01*
X96303Y148592D01*
X95383D01*
G01X97975Y148695D02*
X99202D01*
X99087Y149057D01*
X98895Y149263D01*
X98627Y149367D01*
X98358Y149315D01*
X98128Y149160D01*
X97975Y148798D01*
X97898Y148488D01*
Y148178D01*
X97975Y147868D01*
X98167Y147558D01*
X98397Y147352D01*
X98665Y147300D01*
X98933Y147403D01*
X99202Y147713D01*
G01X100950Y150400D02*
Y147300D01*
G01X100413Y149367D02*
X101487D01*
G01X102813Y147300D02*
Y149367D01*
G01Y148953D02*
X103005Y149160D01*
X103197Y149315D01*
X103465Y149367D01*
X103657Y149315D01*
X103887Y149160D01*
G01X105098Y149367D02*
Y147920D01*
X105252Y147558D01*
X105482Y147352D01*
X105750Y147300D01*
X106018Y147352D01*
X106248Y147558D01*
X106402Y147920D01*
G01Y147300D02*
Y149367D01*
G01X111010Y147300D02*
Y150400D01*
X109592Y148178D01*
X111508D01*
G01X112107Y147920D02*
X112337Y147558D01*
X112643Y147352D01*
X112988Y147300D01*
X113295Y147352D01*
X113602Y147610D01*
X113793Y147920D01*
X113832Y148230D01*
X113755Y148592D01*
X113487Y148850D01*
X113218Y148953D01*
X112873D01*
G01X113218D02*
X113448Y149108D01*
X113640Y149367D01*
X113717Y149677D01*
X113640Y149987D01*
X113448Y150245D01*
X113103Y150400D01*
X112758Y150348D01*
X112413Y150142D01*
G01X114622Y149883D02*
X114852Y150193D01*
X115120Y150348D01*
X115427Y150400D01*
X115810Y150297D01*
X116078Y150038D01*
X116155Y149728D01*
X116117Y149418D01*
X115963Y149160D01*
X115197Y148643D01*
X114852Y148282D01*
X114622Y147765D01*
X114545Y147300D01*
X116155D01*
G01X118517D02*
X116983D01*
Y150400D01*
X118517D01*
G01X117903Y148902D02*
X116983D01*
G01X79483Y142100D02*
Y145200D01*
X80403D01*
X80710Y145045D01*
X80940Y144683D01*
X81017Y144270D01*
X80940Y143857D01*
X80748Y143547D01*
X80403Y143392D01*
X79483D01*
G01X81807Y142100D02*
Y145200D01*
X82573D01*
X82880Y145045D01*
X83110Y144838D01*
X83302Y144528D01*
X83455Y144167D01*
X83493Y143650D01*
X83455Y143133D01*
X83302Y142772D01*
X83110Y142462D01*
X82880Y142255D01*
X82573Y142100D01*
X81807D01*
G01X85893Y144942D02*
X85663Y145097D01*
X85395Y145200D01*
X85088D01*
X84743Y145045D01*
X84475Y144787D01*
X84283Y144477D01*
X84130Y143960D01*
X84092Y143495D01*
X84168Y143030D01*
X84283Y142720D01*
X84513Y142410D01*
X84782Y142203D01*
X85050Y142100D01*
X85318D01*
X85587Y142203D01*
X85817Y142358D01*
X86008Y142565D01*
G01X88217Y142100D02*
X86683D01*
Y145200D01*
X88217D01*
G01X87603Y143702D02*
X86683D01*
G01X91790Y145200D02*
X92710D01*
G01X92250D02*
Y142100D01*
G01X91790D02*
X92710D01*
G01X96322Y144683D02*
X96552Y144993D01*
X96820Y145148D01*
X97127Y145200D01*
X97510Y145097D01*
X97778Y144838D01*
X97855Y144528D01*
X97817Y144218D01*
X97663Y143960D01*
X96897Y143443D01*
X96552Y143082D01*
X96322Y142565D01*
X96245Y142100D01*
X97855D01*
G01X99450Y145200D02*
X99143Y145097D01*
X98913Y144838D01*
X98760Y144528D01*
X98645Y144115D01*
X98607Y143650D01*
X98645Y143185D01*
X98760Y142772D01*
X98913Y142462D01*
X99143Y142203D01*
X99450Y142100D01*
X99757Y142203D01*
X99987Y142462D01*
X100140Y142772D01*
X100255Y143185D01*
X100293Y143650D01*
X100255Y144115D01*
X100140Y144528D01*
X99987Y144838D01*
X99757Y145097D01*
X99450Y145200D01*
G01X101122Y144683D02*
X101352Y144993D01*
X101620Y145148D01*
X101927Y145200D01*
X102310Y145097D01*
X102578Y144838D01*
X102655Y144528D01*
X102617Y144218D01*
X102463Y143960D01*
X101697Y143443D01*
X101352Y143082D01*
X101122Y142565D01*
X101045Y142100D01*
X102655D01*
G01X104250D02*
Y145200D01*
X103790Y144580D01*
G01Y142100D02*
X104710D01*
G01X106152Y143133D02*
X107148D01*
G01X108322Y144683D02*
X108552Y144993D01*
X108820Y145148D01*
X109127Y145200D01*
X109510Y145097D01*
X109778Y144838D01*
X109855Y144528D01*
X109817Y144218D01*
X109663Y143960D01*
X108897Y143443D01*
X108552Y143082D01*
X108322Y142565D01*
X108245Y142100D01*
X109855D01*
G01X111450Y145200D02*
X111143Y145097D01*
X110913Y144838D01*
X110760Y144528D01*
X110645Y144115D01*
X110607Y143650D01*
X110645Y143185D01*
X110760Y142772D01*
X110913Y142462D01*
X111143Y142203D01*
X111450Y142100D01*
X111757Y142203D01*
X111987Y142462D01*
X112140Y142772D01*
X112255Y143185D01*
X112293Y143650D01*
X112255Y144115D01*
X112140Y144528D01*
X111987Y144838D01*
X111757Y145097D01*
X111450Y145200D01*
G01X113122Y144683D02*
X113352Y144993D01*
X113620Y145148D01*
X113927Y145200D01*
X114310Y145097D01*
X114578Y144838D01*
X114655Y144528D01*
X114617Y144218D01*
X114463Y143960D01*
X113697Y143443D01*
X113352Y143082D01*
X113122Y142565D01*
X113045Y142100D01*
X114655D01*
G01X115522Y144683D02*
X115752Y144993D01*
X116020Y145148D01*
X116327Y145200D01*
X116710Y145097D01*
X116978Y144838D01*
X117055Y144528D01*
X117017Y144218D01*
X116863Y143960D01*
X116097Y143443D01*
X115752Y143082D01*
X115522Y142565D01*
X115445Y142100D01*
X117055D01*
G01X96000Y125500D02*
X95787Y125542D01*
X95600Y125708D01*
X95440Y125958D01*
X95333Y126250D01*
X95280Y126583D01*
Y126917D01*
X95333Y127250D01*
X95440Y127542D01*
X95600Y127792D01*
X95787Y127958D01*
X96000Y128000D01*
X96213Y127958D01*
X96400Y127792D01*
X96560Y127542D01*
X96667Y127250D01*
X96720Y126917D01*
Y126583D01*
X96667Y126250D01*
X96560Y125958D01*
X96400Y125708D01*
X96213Y125542D01*
X96000Y125500D01*
G01X96213Y126167D02*
X96533Y125500D01*
G01X98200D02*
Y128000D01*
X97880Y127500D01*
G01Y125500D02*
X98520D01*
G01X100400D02*
Y128000D01*
X100080Y127500D01*
G01Y125500D02*
X100720D01*
G01X127767Y16200D02*
Y13700D01*
X128833D01*
G01X131033D02*
X129967D01*
Y16200D01*
X131033D01*
G01X130607Y14992D02*
X129967D01*
G01X132113Y13700D02*
Y16200D01*
X132647D01*
X132860Y16075D01*
X133020Y15908D01*
X133153Y15658D01*
X133260Y15367D01*
X133287Y14950D01*
X133260Y14533D01*
X133153Y14242D01*
X133020Y13992D01*
X132860Y13825D01*
X132647Y13700D01*
X132113D01*
G01X134393Y15783D02*
X134553Y16033D01*
X134740Y16158D01*
X134953Y16200D01*
X135220Y16117D01*
X135407Y15908D01*
X135460Y15658D01*
X135433Y15408D01*
X135327Y15200D01*
X134793Y14783D01*
X134553Y14492D01*
X134393Y14075D01*
X134340Y13700D01*
X135460D01*
G01X109367Y27100D02*
Y29600D01*
X110033D01*
X110247Y29475D01*
X110380Y29308D01*
X110433Y28975D01*
X110380Y28642D01*
X110220Y28433D01*
X110033Y28308D01*
X109367D01*
G01X110033D02*
X110433Y27100D01*
G01X111593Y29183D02*
X111753Y29433D01*
X111940Y29558D01*
X112153Y29600D01*
X112420Y29517D01*
X112607Y29308D01*
X112660Y29058D01*
X112633Y28808D01*
X112527Y28600D01*
X111993Y28183D01*
X111753Y27892D01*
X111593Y27475D01*
X111540Y27100D01*
X112660D01*
G01X113793Y29183D02*
X113953Y29433D01*
X114140Y29558D01*
X114353Y29600D01*
X114620Y29517D01*
X114807Y29308D01*
X114860Y29058D01*
X114833Y28808D01*
X114727Y28600D01*
X114193Y28183D01*
X113953Y27892D01*
X113793Y27475D01*
X113740Y27100D01*
X114860D01*
G01X117367Y59800D02*
Y62300D01*
X118033D01*
X118247Y62175D01*
X118380Y62008D01*
X118433Y61675D01*
X118380Y61342D01*
X118220Y61133D01*
X118033Y61008D01*
X117367D01*
G01X118033D02*
X118433Y59800D01*
G01X120100D02*
Y62300D01*
X119780Y61800D01*
G01Y59800D02*
X120420D01*
G01X122300D02*
Y62300D01*
X121980Y61800D01*
G01Y59800D02*
X122620D01*
G01X126267Y42400D02*
Y44900D01*
X126933D01*
X127147Y44775D01*
X127280Y44608D01*
X127333Y44275D01*
X127280Y43942D01*
X127120Y43733D01*
X126933Y43608D01*
X126267D01*
G01X126933D02*
X127333Y42400D01*
G01X128493Y44483D02*
X128653Y44733D01*
X128840Y44858D01*
X129053Y44900D01*
X129320Y44817D01*
X129507Y44608D01*
X129560Y44358D01*
X129533Y44108D01*
X129427Y43900D01*
X128893Y43483D01*
X128653Y43192D01*
X128493Y42775D01*
X128440Y42400D01*
X129560D01*
G01X130613Y42900D02*
X130773Y42608D01*
X130987Y42442D01*
X131227Y42400D01*
X131440Y42442D01*
X131653Y42650D01*
X131787Y42900D01*
X131813Y43150D01*
X131760Y43442D01*
X131573Y43650D01*
X131387Y43733D01*
X131147D01*
G01X131387D02*
X131547Y43858D01*
X131680Y44067D01*
X131733Y44317D01*
X131680Y44567D01*
X131547Y44775D01*
X131307Y44900D01*
X131067Y44858D01*
X130827Y44692D01*
G01X121967Y105200D02*
Y107700D01*
X122633D01*
X122847Y107575D01*
X122980Y107408D01*
X123033Y107075D01*
X122980Y106742D01*
X122820Y106533D01*
X122633Y106408D01*
X121967D01*
G01X122633D02*
X123033Y105200D01*
G01X124700D02*
Y107700D01*
X124380Y107200D01*
G01Y105200D02*
X125020D01*
G01X126393Y106242D02*
X126580Y106533D01*
X126740Y106700D01*
X126953Y106783D01*
X127140Y106700D01*
X127273Y106533D01*
X127380Y106283D01*
X127407Y105992D01*
X127380Y105742D01*
X127273Y105492D01*
X127113Y105283D01*
X126927Y105200D01*
X126713Y105283D01*
X126527Y105533D01*
X126420Y105908D01*
X126393Y106325D01*
X126447Y106867D01*
X126527Y107158D01*
X126660Y107450D01*
X126847Y107658D01*
X127033Y107700D01*
X127220Y107617D01*
X127353Y107408D01*
G01X108900Y94500D02*
X108687Y94542D01*
X108500Y94708D01*
X108340Y94958D01*
X108233Y95250D01*
X108180Y95583D01*
Y95917D01*
X108233Y96250D01*
X108340Y96542D01*
X108500Y96792D01*
X108687Y96958D01*
X108900Y97000D01*
X109113Y96958D01*
X109300Y96792D01*
X109460Y96542D01*
X109567Y96250D01*
X109620Y95917D01*
Y95583D01*
X109567Y95250D01*
X109460Y94958D01*
X109300Y94708D01*
X109113Y94542D01*
X108900Y94500D01*
G01X109113Y95167D02*
X109433Y94500D01*
G01X111100D02*
Y97000D01*
X110780Y96500D01*
G01Y94500D02*
X111420D01*
G01X112713Y95000D02*
X112873Y94708D01*
X113087Y94542D01*
X113327Y94500D01*
X113540Y94542D01*
X113753Y94750D01*
X113887Y95000D01*
X113913Y95250D01*
X113860Y95542D01*
X113673Y95750D01*
X113487Y95833D01*
X113247D01*
G01X113487D02*
X113647Y95958D01*
X113780Y96167D01*
X113833Y96417D01*
X113780Y96667D01*
X113647Y96875D01*
X113407Y97000D01*
X113167Y96958D01*
X112927Y96792D01*
G01X127967Y152900D02*
Y150400D01*
X129033D01*
G01X131233D02*
X130167D01*
Y152900D01*
X131233D01*
G01X130807Y151692D02*
X130167D01*
G01X132313Y150400D02*
Y152900D01*
X132847D01*
X133060Y152775D01*
X133220Y152608D01*
X133353Y152358D01*
X133460Y152067D01*
X133487Y151650D01*
X133460Y151233D01*
X133353Y150942D01*
X133220Y150692D01*
X133060Y150525D01*
X132847Y150400D01*
X132313D01*
G01X135100D02*
Y152900D01*
X134780Y152400D01*
G01Y150400D02*
X135420D01*
G01X115267Y130200D02*
Y132700D01*
X115933D01*
X116147Y132575D01*
X116280Y132408D01*
X116333Y132075D01*
X116280Y131742D01*
X116120Y131533D01*
X115933Y131408D01*
X115267D01*
G01X115933D02*
X116333Y130200D01*
G01X118000D02*
Y132700D01*
X117680Y132200D01*
G01Y130200D02*
X118320D01*
G01X120200Y132700D02*
X119987Y132617D01*
X119827Y132408D01*
X119720Y132158D01*
X119640Y131825D01*
X119613Y131450D01*
X119640Y131075D01*
X119720Y130742D01*
X119827Y130492D01*
X119987Y130283D01*
X120200Y130200D01*
X120413Y130283D01*
X120573Y130492D01*
X120680Y130742D01*
X120760Y131075D01*
X120787Y131450D01*
X120760Y131825D01*
X120680Y132158D01*
X120573Y132408D01*
X120413Y132617D01*
X120200Y132700D01*
G01X144160Y11150D02*
X144693D01*
Y10400D01*
X144533Y10150D01*
X144347Y9983D01*
X144080Y9900D01*
X143813Y9983D01*
X143627Y10150D01*
X143467Y10400D01*
X143360Y10692D01*
X143307Y11025D01*
Y11317D01*
X143360Y11567D01*
X143467Y11858D01*
X143627Y12108D01*
X143787Y12275D01*
X144000Y12400D01*
X144187D01*
X144400Y12317D01*
X144560Y12150D01*
G01X145587Y9900D02*
Y12400D01*
X146813Y9900D01*
Y12400D01*
G01X147813Y9900D02*
Y12400D01*
X148347D01*
X148560Y12275D01*
X148720Y12108D01*
X148853Y11858D01*
X148960Y11567D01*
X148987Y11150D01*
X148960Y10733D01*
X148853Y10442D01*
X148720Y10192D01*
X148560Y10025D01*
X148347Y9900D01*
X147813D01*
G01X143967Y40800D02*
Y43300D01*
X144607D01*
X144820Y43175D01*
X144980Y42883D01*
X145033Y42550D01*
X144980Y42217D01*
X144847Y41967D01*
X144607Y41842D01*
X143967D01*
G01X146140Y41133D02*
X146353Y40925D01*
X146593Y40800D01*
X146807D01*
X147020Y40925D01*
X147180Y41133D01*
X147260Y41425D01*
X147207Y41717D01*
X147073Y41967D01*
X146833Y42133D01*
X146513Y42217D01*
X146327Y42383D01*
X146247Y42675D01*
X146300Y42967D01*
X146433Y43175D01*
X146620Y43300D01*
X146807D01*
X146993Y43217D01*
X147153Y43008D01*
G01X148313Y43300D02*
Y41508D01*
X148420Y41133D01*
X148633Y40883D01*
X148900Y40800D01*
X149167Y40883D01*
X149380Y41133D01*
X149487Y41508D01*
Y43300D01*
G01X134500Y86367D02*
X132000D01*
Y87033D01*
X132125Y87247D01*
X132292Y87380D01*
X132625Y87433D01*
X132958Y87380D01*
X133167Y87220D01*
X133292Y87033D01*
Y86367D01*
G01Y87033D02*
X134500Y87433D01*
G01Y89100D02*
X132000D01*
X132500Y88780D01*
G01X134500D02*
Y89420D01*
G01Y91247D02*
X133958Y91300D01*
X133500Y91380D01*
X133083Y91487D01*
X132625Y91620D01*
X132000Y91833D01*
Y90767D01*
G01X134600Y75267D02*
X132100D01*
Y75933D01*
X132225Y76147D01*
X132392Y76280D01*
X132725Y76333D01*
X133058Y76280D01*
X133267Y76120D01*
X133392Y75933D01*
Y75267D01*
G01Y75933D02*
X134600Y76333D01*
G01Y78000D02*
X132100D01*
X132600Y77680D01*
G01X134600D02*
Y78320D01*
G01Y80200D02*
X134558Y80387D01*
X134433Y80600D01*
X134225Y80733D01*
X133933Y80787D01*
X133642Y80733D01*
X133392Y80573D01*
X133267Y80333D01*
Y80067D01*
X133183Y79907D01*
X132975Y79773D01*
X132683Y79720D01*
X132392Y79800D01*
X132183Y79987D01*
X132100Y80200D01*
X132183Y80413D01*
X132392Y80600D01*
X132683Y80680D01*
X132975Y80627D01*
X133183Y80493D01*
X133267Y80333D01*
Y80067D01*
X133392Y79827D01*
X133642Y79667D01*
X133933Y79613D01*
X134225Y79667D01*
X134433Y79800D01*
X134558Y80013D01*
X134600Y80200D01*
G01Y64067D02*
X132100D01*
Y64733D01*
X132225Y64947D01*
X132392Y65080D01*
X132725Y65133D01*
X133058Y65080D01*
X133267Y64920D01*
X133392Y64733D01*
Y64067D01*
G01Y64733D02*
X134600Y65133D01*
G01Y66800D02*
X132100D01*
X132600Y66480D01*
G01X134600D02*
Y67120D01*
G01X134308Y68547D02*
X134517Y68733D01*
X134600Y68947D01*
X134517Y69160D01*
X134267Y69347D01*
X133892Y69480D01*
X133517Y69533D01*
X133058D01*
X132683Y69480D01*
X132350Y69347D01*
X132183Y69187D01*
X132100Y69000D01*
X132183Y68787D01*
X132350Y68627D01*
X132600Y68520D01*
X132933Y68467D01*
X133225Y68520D01*
X133517Y68653D01*
X133683Y68813D01*
X133725Y69000D01*
X133642Y69213D01*
X133433Y69373D01*
X133058Y69533D01*
G01X140833Y90000D02*
X141500Y87500D01*
X142167Y90000D01*
G01X143700Y87500D02*
X143487Y87542D01*
X143300Y87708D01*
X143140Y87958D01*
X143033Y88250D01*
X142980Y88583D01*
Y88917D01*
X143033Y89250D01*
X143140Y89542D01*
X143300Y89792D01*
X143487Y89958D01*
X143700Y90000D01*
X143913Y89958D01*
X144100Y89792D01*
X144260Y89542D01*
X144367Y89250D01*
X144420Y88917D01*
Y88583D01*
X144367Y88250D01*
X144260Y87958D01*
X144100Y87708D01*
X143913Y87542D01*
X143700Y87500D01*
G01X145313Y90000D02*
Y88208D01*
X145420Y87833D01*
X145633Y87583D01*
X145900Y87500D01*
X146167Y87583D01*
X146380Y87833D01*
X146487Y88208D01*
Y90000D01*
G01X148100D02*
Y87500D01*
G01X147487Y90000D02*
X148713D01*
G01X144867Y114600D02*
Y117100D01*
X145533D01*
X145747Y116975D01*
X145880Y116808D01*
X145933Y116475D01*
X145880Y116142D01*
X145720Y115933D01*
X145533Y115808D01*
X144867D01*
G01X145533D02*
X145933Y114600D01*
G01X147093Y116683D02*
X147253Y116933D01*
X147440Y117058D01*
X147653Y117100D01*
X147920Y117017D01*
X148107Y116808D01*
X148160Y116558D01*
X148133Y116308D01*
X148027Y116100D01*
X147493Y115683D01*
X147253Y115392D01*
X147093Y114975D01*
X147040Y114600D01*
X148160D01*
G01X149800D02*
Y117100D01*
X149480Y116600D01*
G01Y114600D02*
X150120D01*
G01X144967Y124700D02*
Y127200D01*
X145633D01*
X145847Y127075D01*
X145980Y126908D01*
X146033Y126575D01*
X145980Y126242D01*
X145820Y126033D01*
X145633Y125908D01*
X144967D01*
G01X145633D02*
X146033Y124700D01*
G01X147193Y126783D02*
X147353Y127033D01*
X147540Y127158D01*
X147753Y127200D01*
X148020Y127117D01*
X148207Y126908D01*
X148260Y126658D01*
X148233Y126408D01*
X148127Y126200D01*
X147593Y125783D01*
X147353Y125492D01*
X147193Y125075D01*
X147140Y124700D01*
X148260D01*
G01X149900Y127200D02*
X149687Y127117D01*
X149527Y126908D01*
X149420Y126658D01*
X149340Y126325D01*
X149313Y125950D01*
X149340Y125575D01*
X149420Y125242D01*
X149527Y124992D01*
X149687Y124783D01*
X149900Y124700D01*
X150113Y124783D01*
X150273Y124992D01*
X150380Y125242D01*
X150460Y125575D01*
X150487Y125950D01*
X150460Y126325D01*
X150380Y126658D01*
X150273Y126908D01*
X150113Y127117D01*
X149900Y127200D01*
G54D11*
G01X6300Y47550D02*
X21300D01*
G01X6300Y82050D02*
Y47550D01*
G01X21300Y82050D02*
X6300D01*
G01X35200Y45900D02*
Y30100D01*
G01D02*
X30800D01*
G01D02*
X30000Y29300D01*
G01D02*
X29200Y30100D01*
G01D02*
X24800D01*
G01D02*
Y45900D01*
G01X35200Y27700D02*
Y11900D01*
G01D02*
X30800D01*
G01D02*
X30000Y11100D01*
G01D02*
X29200Y11900D01*
G01D02*
X24800D01*
G01D02*
Y27700D01*
G01D02*
X35200D01*
G01X21400Y45800D02*
Y29800D01*
G01D02*
X13800D01*
G01D02*
Y45800D01*
G01X24800Y45900D02*
X35200D01*
G01X13800Y45800D02*
X21400D01*
G01X21300Y47550D02*
Y82050D01*
G01X43400Y48800D02*
X39300D01*
Y43200D01*
G01X28200Y72300D02*
X37100D01*
G01X32700Y67800D02*
Y76800D01*
G01X26800Y72300D02*
G03X32700Y66400I5904J4D01*
G03X38600Y72500I15J5889D01*
G03X32700Y78200I-5894J-197D01*
G03X26800Y72300I18J-5918D01*
G01X31700Y82100D02*
X33700D01*
G01X38200Y62400D02*
X42600D01*
Y82100D01*
X41400D01*
G01X27200Y62400D02*
X22900D01*
Y82100D01*
X24100D01*
G01X39600Y92400D02*
X35300D01*
Y98000D01*
G01X25500Y92300D02*
X22600D01*
G01X21400Y97900D02*
X17300D01*
Y92300D01*
G01X26800Y97900D02*
X31100D01*
Y92300D01*
G01X27500Y136500D02*
Y152500D01*
G01X35100D02*
Y136500D01*
G01D02*
X27500D01*
G01X30100Y128800D02*
Y125900D01*
G01X24500Y124700D02*
Y120600D01*
X30100D01*
G01X24500Y130100D02*
Y134400D01*
X30100D01*
G01X27500Y152500D02*
X35100D01*
G01X80100Y7000D02*
X64100D01*
G01D02*
Y14600D01*
G01D02*
X80100D01*
G01X46200D02*
X62200D01*
G01D02*
Y7000D01*
G01D02*
X46200D01*
G01D02*
Y14600D01*
G01X46400Y18700D02*
Y34700D01*
G01X54000D02*
Y18700D01*
G01D02*
X46400D01*
G01Y34700D02*
X54000D01*
G01X74100Y56900D02*
X58100D01*
G01D02*
Y64500D01*
G01X69400Y48800D02*
X65300D01*
Y43200D01*
G01X47500D02*
X44600D01*
G01X48800Y48800D02*
X53100D01*
Y43200D01*
G01X74100Y87200D02*
X58100D01*
G01D02*
Y94800D01*
G01Y64500D02*
X74100D01*
G01X66400Y71300D02*
Y80200D01*
G01X70900Y75800D02*
X61900D01*
G01X66400Y69900D02*
G03X72300Y75800I-4J5904D01*
G03X66200Y81700I-5889J15D01*
G03X60500Y75800I197J-5894D01*
G03X66400Y69900I5918J18D01*
G01X56600Y74800D02*
Y76800D01*
G01X76300Y81300D02*
Y85700D01*
X56600D01*
Y84500D01*
G01X76300Y70300D02*
Y66000D01*
X56600D01*
Y67200D01*
G01X64000Y117300D02*
Y101300D01*
G01D02*
X56400D01*
G01D02*
Y117300D01*
G01D02*
X64000D01*
G01X58100Y94800D02*
X74100D01*
G01X69700Y112200D02*
X65600D01*
Y106600D01*
G01X40900Y98000D02*
X43800D01*
G01X45000Y92400D02*
X49100D01*
Y98000D01*
G01X67700Y142800D02*
Y127000D01*
G01D02*
X63300D01*
G01D02*
X62500Y126200D01*
G01D02*
X61700Y127000D01*
G01D02*
X57300D01*
G01D02*
Y142800D01*
G01D02*
X67700D01*
G01X46100Y136500D02*
Y152500D01*
G01X53700D02*
Y136500D01*
G01D02*
X46100D01*
G01X48700Y128800D02*
Y125900D01*
G01X43100Y124700D02*
Y120600D01*
X48700D01*
G01X43100Y130100D02*
Y134400D01*
X48700D01*
G01X46100Y152500D02*
X53700D01*
G01X98000Y7000D02*
X82000D01*
G01D02*
Y14600D01*
G01D02*
X98000D01*
G01D02*
Y7000D01*
G01X80100Y14600D02*
Y7000D01*
G01X72400Y18700D02*
Y34700D01*
G01X80000D02*
Y18700D01*
G01D02*
X72400D01*
G01X90000D02*
Y34700D01*
G01X97600D02*
Y18700D01*
G01D02*
X90000D01*
G01X72400Y34700D02*
X80000D01*
G01X90000D02*
X97600D01*
G01X74100Y64500D02*
Y56900D01*
G01X91100Y43200D02*
X88200D01*
G01X87000Y48800D02*
X82900D01*
Y43200D01*
G01X92400Y48800D02*
X96700D01*
Y43200D01*
G01X73500D02*
X70600D01*
G01X74800Y48800D02*
X79100D01*
Y43200D01*
G01X74100Y94800D02*
Y87200D01*
G01X101700Y77400D02*
X97600D01*
Y71800D01*
G01X101500Y92900D02*
X97400D01*
Y87300D01*
G01X90900Y79200D02*
X88000D01*
G01X86800Y84800D02*
X82700D01*
Y79200D01*
G01X92200Y84800D02*
X96500D01*
Y79200D01*
G01X89900Y106700D02*
X87000D01*
G01X85800Y112300D02*
X81700D01*
Y106700D01*
G01X91200Y112300D02*
X95500D01*
Y106700D01*
G01X73800Y106600D02*
X70900D01*
G01X75100Y112200D02*
X79400D01*
Y106600D01*
G01X126400Y22700D02*
Y6900D01*
G01D02*
X122000D01*
G01D02*
X121200Y6100D01*
G01D02*
X120400Y6900D01*
G01D02*
X116000D01*
G01D02*
Y22700D01*
G01D02*
X126400D01*
G01X132200Y24300D02*
X116200D01*
G01D02*
Y31900D01*
G01Y42700D02*
Y58700D01*
G01D02*
X123800D01*
G01D02*
Y42700D01*
G01D02*
X116200D01*
G01Y31900D02*
X132200D01*
G01Y33500D02*
X116200D01*
G01D02*
Y41100D01*
G01D02*
X132200D01*
G01X108000Y52000D02*
Y49100D01*
G01X102400Y47900D02*
Y43800D01*
X108000D01*
G01X102400Y53300D02*
Y57600D01*
X108000D01*
G01X131100Y85400D02*
X115100D01*
G01D02*
Y93000D01*
G01X131100Y74400D02*
X115100D01*
G01D02*
Y82000D01*
G01D02*
X131100D01*
G01Y63400D02*
X115100D01*
G01D02*
Y71000D01*
G01D02*
X131100D01*
G01X105800Y71800D02*
X102900D01*
G01X107100Y77400D02*
X111400D01*
Y71800D01*
G01X105600Y87300D02*
X102700D01*
G01X106900Y92900D02*
X111200D01*
Y87300D01*
G01X121700Y129200D02*
Y113200D01*
G01D02*
X114100D01*
G01D02*
Y129200D01*
G01X116900Y104100D02*
X132900D01*
G01Y96500D02*
X116900D01*
G01D02*
Y104100D01*
G01X115100Y93000D02*
X131100D01*
G01X127500Y119900D02*
X143500D01*
G01Y112300D02*
X127500D01*
G01D02*
Y119900D01*
G01X107900Y122700D02*
Y119800D01*
G01X102300Y118600D02*
Y114500D01*
X107900D01*
G01X130500Y132800D02*
X126100D01*
G01D02*
Y148600D01*
G01D02*
X136500D01*
G01X114100Y129200D02*
X121700D01*
G01X143500Y122000D02*
X127500D01*
G01D02*
Y129600D01*
G01D02*
X143500D01*
G01X102300Y124000D02*
Y128300D01*
X107900D01*
G01X139300Y23000D02*
X153600D01*
Y13500D01*
X139000D01*
Y23000D01*
X139300D01*
G01X132200Y31900D02*
Y24300D01*
G01X138900Y25050D02*
X153900D01*
G01D02*
Y59550D01*
G01X138900D02*
Y25050D01*
G01X132200Y41100D02*
Y33500D01*
G01X153900Y59550D02*
X138900D01*
G01X131100Y93000D02*
Y85400D01*
G01Y82000D02*
Y74400D01*
G01Y71000D02*
Y63400D01*
G01X136900Y71250D02*
X151900D01*
G01D02*
Y105750D01*
G01X136900D02*
Y71250D01*
G01X132900Y104100D02*
Y96500D01*
G01X143500Y119900D02*
Y112300D01*
G01X151900Y105750D02*
X136900D01*
G01X136500Y148600D02*
Y132800D01*
G01D02*
X132100D01*
G01D02*
X131300Y132000D01*
G01D02*
X130500Y132800D01*
G01X143500Y129600D02*
Y122000D01*
M02*
