G04 ================== begin FILE IDENTIFICATION RECORD ==================*
G04 Layout Name:  C:/USERS/PETRU/DESKTOP/TRANSFER_PCB/allegro/AAF_TRANSFER_PCB.brd*
G04 Film Name:    TOP*
G04 File Format:  Gerber RS274X*
G04 File Origin:  Cadence Allegro 16.6-2015-S059*
G04 Origin Date:  Wed Dec 15 15:13:37 2021*
G04 *
G04 Layer:  ETCH/TOP*
G04 Layer:  PIN/TOP*
G04 Layer:  VIA CLASS/TOP*
G04 *
G04 Offset:    (0.00 0.00)*
G04 Mirror:    No*
G04 Mode:      Positive*
G04 Rotation:  0*
G04 FullContactRelief:  No*
G04 UndefLineWidth:     8.00*
G04 ================== end FILE IDENTIFICATION RECORD ====================*
%FSLAX25Y25*MOIN*%
%IR0*IPPOS*OFA0.00000B0.00000*MIA0B0*SFA1.00000B1.00000*%
%ADD21R,.12X.071*%
%ADD10R,.12X.076*%
%ADD12C,.04*%
%ADD16C,.024*%
%ADD13R,.05X.05*%
%ADD17R,.052X.052*%
%ADD18R,.08X.08*%
%ADD15R,.036X.05*%
%ADD19R,.05X.036*%
%ADD14R,.08X.052*%
%ADD20R,.052X.08*%
%ADD11R,.076X.048*%
%ADD22C,.02*%
%ADD23C,.03*%
%ADD24C,.016*%
%ADD28R,.13004X.08104*%
%ADD25R,.13004X.08604*%
%ADD26C,.07804*%
%ADD27R,.06004X.06004*%
G75*
%LPD*%
G75*
G36*
G01X5100Y5000D02*
Y155000D01*
X154900D01*
Y5000D01*
X5100D01*
G37*
%LPC*%
G75*
G36*
G01X92702Y46398D02*
X86698D01*
Y53802D01*
X87698D01*
Y56971D01*
X85971Y58698D01*
X74002D01*
Y56998D01*
X66598D01*
Y64402D01*
X74002D01*
Y62702D01*
X87629D01*
X91702Y58629D01*
Y53802D01*
X92702D01*
Y52602D01*
X97398D01*
Y53602D01*
X98298D01*
Y66898D01*
X97298D01*
Y68598D01*
X94371D01*
X91598Y71371D01*
Y74298D01*
X90598D01*
Y81702D01*
X96602D01*
Y74298D01*
X95602D01*
Y73029D01*
X96029Y72602D01*
X97298D01*
Y74302D01*
X103302D01*
Y66898D01*
X102302D01*
Y63802D01*
G03X103030Y63574I400J0D01*
G02X105942Y64410I1970J-1374D01*
G03X106498Y64778I156J368D01*
G01Y66898D01*
X105498D01*
Y74302D01*
X111502D01*
Y66898D01*
X110502D01*
Y65829D01*
X111725Y64605D01*
X111782Y64592D01*
G02X111400Y59853I-533J-2342D01*
G03X111143Y59171I26J-399D01*
G01X111402Y58912D01*
Y57702D01*
X112902D01*
Y56902D01*
X116298D01*
Y58602D01*
X123702D01*
Y57102D01*
X129188D01*
X131498Y59412D01*
Y90788D01*
X131343Y90944D01*
G03X131002Y90802I-141J-142D01*
G01Y85498D01*
X123598D01*
Y92798D01*
X122602D01*
Y85498D01*
X120902D01*
Y81902D01*
X122602D01*
Y74498D01*
X115198D01*
Y81902D01*
X116898D01*
Y85498D01*
X115198D01*
Y86102D01*
G03X114516Y86385I-400J0D01*
G01X112229Y84098D01*
X111302D01*
Y82802D01*
G03X111501Y82602I200J0D01*
G02X110575Y77983I-1J-2402D01*
G01X110538Y77998D01*
X110112D01*
X108612Y76498D01*
X107402D01*
Y74998D01*
X101398D01*
Y82398D01*
X97098D01*
Y84098D01*
X92502D01*
Y82398D01*
X86498D01*
Y84098D01*
X79371D01*
X76598Y86871D01*
Y88571D01*
X76171Y88998D01*
X74002D01*
Y87298D01*
X66598D01*
Y94702D01*
X74002D01*
Y93002D01*
X77829D01*
X80602Y90229D01*
Y88529D01*
X81029Y88102D01*
X86498D01*
Y89802D01*
X87498D01*
Y97629D01*
X90598Y100729D01*
Y101798D01*
X89598D01*
Y109202D01*
X95602D01*
Y107502D01*
X98571D01*
X98998Y107929D01*
Y118298D01*
X97298D01*
Y124302D01*
X104702D01*
Y118298D01*
X103002D01*
Y106271D01*
X100229Y103498D01*
X95602D01*
Y101798D01*
X94602D01*
Y99071D01*
X91502Y95971D01*
Y89802D01*
X92502D01*
Y88102D01*
X97098D01*
Y89802D01*
X103102D01*
Y82402D01*
X105298D01*
Y89802D01*
X111098D01*
Y104629D01*
X115898Y109429D01*
Y113298D01*
X114198D01*
Y114998D01*
X112802D01*
Y114198D01*
X105398D01*
Y120202D01*
X112802D01*
Y119002D01*
X114198D01*
Y120702D01*
X121602D01*
Y113298D01*
X119902D01*
Y107771D01*
X115102Y102971D01*
Y92902D01*
X120502D01*
G03X120785Y93584I0J400D01*
G01X118698Y95671D01*
Y96598D01*
X116998D01*
Y104002D01*
X124402D01*
Y96802D01*
X125398D01*
Y104002D01*
X126898D01*
Y106588D01*
X122398Y111088D01*
Y122388D01*
X122284Y122502D01*
G03X121602Y122219I-282J-283D01*
G01Y121698D01*
X114198D01*
Y123198D01*
X112802D01*
Y122398D01*
X105398D01*
Y128402D01*
X112802D01*
Y127602D01*
X114198D01*
Y129102D01*
X121602D01*
Y127602D01*
X123412D01*
X126802Y124212D01*
Y112912D01*
X131302Y108412D01*
Y104002D01*
X132802D01*
Y102502D01*
X137198D01*
Y105302D01*
X151602D01*
Y95298D01*
X137198D01*
Y98098D01*
X132802D01*
Y96591D01*
G03X132598Y95916I79J-392D01*
G01X135902Y92612D01*
Y57588D01*
X131012Y52698D01*
X123702D01*
Y51198D01*
X116298D01*
Y52498D01*
X112902D01*
Y51698D01*
X105498D01*
Y57709D01*
G03X105702Y58384I-79J392D01*
G01X104123Y59963D01*
X104086Y59979D01*
G02X103030Y60826I914J2221D01*
G03X102302Y60598I-328J-228D01*
G01Y53602D01*
X104802D01*
Y47598D01*
X97398D01*
Y48598D01*
X92702D01*
Y46398D01*
G37*
G36*
G01X58875Y29955D02*
X58932Y29942D01*
G02X56058Y27068I-532J-2342D01*
G01X56045Y27125D01*
X54584Y28585D01*
G03X53902Y28302I-282J-283D01*
G01Y27198D01*
X46498D01*
Y34602D01*
X48198D01*
Y38298D01*
X47198D01*
Y45702D01*
X53202D01*
Y38298D01*
X52202D01*
Y34602D01*
X54098D01*
Y48371D01*
X49784Y52685D01*
G03X49102Y52402I-282J-283D01*
G01Y46398D01*
X43098D01*
Y53898D01*
X33271D01*
X30698Y56471D01*
Y57398D01*
X27498D01*
Y65002D01*
X37902D01*
Y57902D01*
X45829D01*
X48102Y55629D01*
Y53802D01*
X48698D01*
Y95498D01*
X43398D01*
Y103098D01*
X41202D01*
Y95498D01*
X35002D01*
Y92429D01*
X38616Y88815D01*
G03X39298Y89098I282J283D01*
G01Y94802D01*
X45302D01*
Y87129D01*
X46325Y86105D01*
X46382Y86092D01*
G02X43508Y83218I-532J-2342D01*
G01X43495Y83275D01*
X41784Y84985D01*
G03X41102Y84702I-282J-283D01*
G01Y79598D01*
X33498D01*
Y87202D01*
X33602D01*
G03X33885Y87884I0J400D01*
G01X31884Y89885D01*
G03X31202Y89602I-282J-283D01*
G01Y87202D01*
X32002D01*
Y79598D01*
X24398D01*
Y87202D01*
X25198D01*
Y94802D01*
X30998D01*
Y98129D01*
X34071Y101202D01*
X35198D01*
Y103098D01*
X34371D01*
X31071Y106398D01*
X29302D01*
Y103198D01*
X27102D01*
Y95498D01*
X21098D01*
Y103198D01*
X18898D01*
Y113602D01*
X21198D01*
Y124398D01*
X19498D01*
Y130402D01*
X26902D01*
Y124398D01*
X25202D01*
Y113602D01*
X29302D01*
Y110402D01*
X32729D01*
X36029Y107102D01*
X56498D01*
Y108802D01*
X63902D01*
Y107102D01*
X65298D01*
Y109102D01*
X71302D01*
Y101698D01*
X65298D01*
Y103098D01*
X63902D01*
Y101398D01*
X56498D01*
Y103098D01*
X49402D01*
Y101202D01*
X50397D01*
X52702Y98897D01*
Y84202D01*
X53298D01*
Y90229D01*
X56071Y93002D01*
X58198D01*
Y94702D01*
X65602D01*
Y87298D01*
X58198D01*
Y88998D01*
X57729D01*
X57302Y88571D01*
Y84202D01*
X59102D01*
Y76598D01*
X52702D01*
Y75102D01*
X59102D01*
Y67498D01*
X57302D01*
Y63029D01*
X57629Y62702D01*
X58198D01*
Y64402D01*
X65602D01*
Y56998D01*
X58198D01*
Y58698D01*
X55971D01*
X53298Y61371D01*
Y67498D01*
X52702D01*
Y55429D01*
X58102Y50029D01*
Y30729D01*
X58875Y29955D01*
G37*
G36*
G01X81302Y75998D02*
Y70598D01*
X73698D01*
Y81002D01*
X81302D01*
Y80002D01*
X82398D01*
Y81702D01*
X88402D01*
Y74298D01*
X82398D01*
Y75998D01*
X81302D01*
G37*
G36*
G01X35002Y134502D02*
Y128498D01*
X27598D01*
Y134502D01*
X29298D01*
Y136598D01*
X27598D01*
Y144002D01*
X35002D01*
Y136598D01*
X33302D01*
Y134502D01*
X35002D01*
G37*
G36*
G01X143402Y119802D02*
Y112398D01*
X135998D01*
Y119802D01*
X137698D01*
Y122098D01*
X135998D01*
Y129502D01*
X143402D01*
Y122098D01*
X141702D01*
Y119802D01*
X143402D01*
G37*
G36*
G01X48602Y110998D02*
Y107798D01*
X38198D01*
Y110998D01*
X35628D01*
G02Y115002I-1328J2002D01*
G01X38198D01*
Y118202D01*
X47898D01*
Y120298D01*
X46198D01*
Y121298D01*
X42103D01*
X39798Y123603D01*
Y124398D01*
X38702D01*
Y124071D01*
X35929Y121298D01*
X35002D01*
Y120298D01*
X27598D01*
Y126302D01*
X34698D01*
Y126929D01*
X37171Y129402D01*
X38098D01*
Y130402D01*
X45502D01*
Y125302D01*
X46198D01*
Y126302D01*
X53602D01*
Y120298D01*
X51902D01*
Y113571D01*
X49329Y110998D01*
X48602D01*
G37*
G36*
G01X107202Y97902D02*
Y90498D01*
X101198D01*
Y97902D01*
X101998D01*
Y102039D01*
G02X106402I2202J961D01*
G01Y97902D01*
X107202D01*
G37*
G36*
G01X21002Y81602D02*
Y71598D01*
X6598D01*
Y81602D01*
X11598D01*
Y90212D01*
X14688Y93302D01*
X16998D01*
Y94802D01*
X23002D01*
Y87398D01*
X16998D01*
Y88898D01*
X16512D01*
X16002Y88388D01*
Y81602D01*
X21002D01*
G37*
G36*
G01X131002Y70902D02*
Y63498D01*
X123598D01*
Y70902D01*
X125298D01*
Y74498D01*
X123598D01*
Y81902D01*
X131002D01*
Y74498D01*
X129302D01*
Y70902D01*
X131002D01*
G37*
G36*
G01X150677Y62463D02*
X148602Y60388D01*
Y59102D01*
X153602D01*
Y49098D01*
X139198D01*
Y59102D01*
X144198D01*
Y62212D01*
X147563Y65577D01*
X147579Y65614D01*
G02X150714Y62479I2221J-914D01*
G01X150677Y62463D01*
G37*
G36*
G01X75102Y53802D02*
Y46398D01*
X69098D01*
Y48098D01*
X62328D01*
G02Y52102I-1328J2002D01*
G01X69098D01*
Y53802D01*
X75102D01*
G37*
G36*
G01X111202Y43498D02*
Y40801D01*
G02X107198I-2002J-1328D01*
G01Y43498D01*
X105498D01*
Y49502D01*
X112902D01*
Y48502D01*
X116298D01*
Y50202D01*
X123702D01*
Y42798D01*
X116298D01*
Y44498D01*
X112902D01*
Y43498D01*
X111202D01*
G37*
G36*
G01X87602Y37371D02*
X86555Y36325D01*
X86542Y36268D01*
G02X82598Y38590I-2342J532D01*
G01Y45702D01*
X88602D01*
Y38298D01*
X87602D01*
Y37371D01*
G37*
G36*
G01X70002Y37571D02*
X68755Y36325D01*
X68742Y36268D01*
G02X64998Y38751I-2342J532D01*
G01Y45702D01*
X71002D01*
Y38298D01*
X70002D01*
Y37571D01*
G37*
G36*
G01X44002Y37371D02*
X42955Y36325D01*
X42942Y36268D01*
G02X38998Y38590I-2342J532D01*
G01Y39998D01*
X35002D01*
Y38398D01*
X24998D01*
Y39998D01*
X21302D01*
Y38298D01*
X13898D01*
Y45702D01*
X21302D01*
Y44002D01*
X24998D01*
Y45602D01*
X35002D01*
Y44002D01*
X38998D01*
Y45702D01*
X45002D01*
Y38298D01*
X44002D01*
Y37371D01*
G37*
G36*
G01X97502Y34602D02*
Y27198D01*
X90098D01*
Y34602D01*
X91798D01*
Y38298D01*
X90798D01*
Y45702D01*
X96802D01*
Y38298D01*
X95802D01*
Y34602D01*
X97502D01*
G37*
G36*
G01X79902D02*
Y27198D01*
X72498D01*
Y34602D01*
X74198D01*
Y38298D01*
X73198D01*
Y45702D01*
X79202D01*
Y38298D01*
X78202D01*
Y34602D01*
X79902D01*
G37*
G36*
G01X132102Y31802D02*
Y24398D01*
X124698D01*
Y31802D01*
X126398D01*
Y33598D01*
X124698D01*
Y41002D01*
X132102D01*
Y33598D01*
X130402D01*
Y31802D01*
X132102D01*
G37*
G36*
G01X35002Y27402D02*
Y20198D01*
X24998D01*
Y27402D01*
X27998D01*
Y30498D01*
X24998D01*
Y37702D01*
X35002D01*
Y30498D01*
X32002D01*
Y27402D01*
X35002D01*
G37*
G36*
G01X126202Y22402D02*
Y15198D01*
X116198D01*
Y22402D01*
X117998D01*
Y24398D01*
X116298D01*
Y31802D01*
X123702D01*
Y24398D01*
X122002D01*
Y22402D01*
X126202D01*
G37*
G36*
G01X97902Y8598D02*
Y7098D01*
X90498D01*
Y14502D01*
X97902D01*
Y13002D01*
X101288D01*
X102763Y14477D01*
X102779Y14514D01*
G02X105914Y11379I2221J-914D01*
G01X105877Y11363D01*
X103112Y8598D01*
X97902D01*
G37*
G36*
G01X80002Y8798D02*
Y7098D01*
X72598D01*
Y14502D01*
X80002D01*
Y12802D01*
X82098D01*
Y14502D01*
X89502D01*
Y7098D01*
X82098D01*
Y8798D01*
X80002D01*
G37*
G36*
G01X62102D02*
Y7098D01*
X54698D01*
Y14502D01*
X56398D01*
Y16072D01*
G02X60402I2002J1328D01*
G01Y14502D01*
X62102D01*
Y12802D01*
X64198D01*
Y14502D01*
X71602D01*
Y7098D01*
X64198D01*
Y8798D01*
X62102D01*
G37*
G36*
G01X126202Y8698D02*
Y7298D01*
X116198D01*
Y8698D01*
X111988D01*
X108698Y11988D01*
Y19288D01*
X107688Y20298D01*
X97502D01*
Y18798D01*
X90098D01*
Y20298D01*
X79902D01*
Y18798D01*
X72498D01*
Y20298D01*
X53902D01*
Y18798D01*
X46498D01*
Y20298D01*
X45012D01*
X38412Y13698D01*
X35002D01*
Y12298D01*
X24998D01*
Y19502D01*
X35002D01*
Y18102D01*
X36588D01*
X43188Y24702D01*
X46498D01*
Y26202D01*
X53902D01*
Y24702D01*
X72498D01*
Y26202D01*
X79902D01*
Y24702D01*
X90098D01*
Y26202D01*
X97502D01*
Y24702D01*
X109512D01*
X113102Y21112D01*
Y13812D01*
X113812Y13102D01*
X116198D01*
Y14502D01*
X126202D01*
Y13102D01*
X132138D01*
X132848Y13812D01*
Y29539D01*
G02X136011Y32702I2202J961D01*
G01X139198D01*
Y35502D01*
X153602D01*
Y25498D01*
X139198D01*
Y28298D01*
X137252D01*
Y11988D01*
X133962Y8698D01*
X126202D01*
G37*
G36*
G01X83855Y98825D02*
X83842Y98768D01*
G02X80968Y101642I-2342J532D01*
G01X81025Y101655D01*
X81398Y102029D01*
Y103602D01*
G03X80716Y103885I-400J0D01*
G01X80229Y103398D01*
X79502D01*
Y101698D01*
X73498D01*
Y109102D01*
X78598D01*
Y121871D01*
X78071Y122398D01*
X72679D01*
G03X72396Y121716I0J-400D01*
G01X74402Y119710D01*
Y117202D01*
X75402D01*
Y109798D01*
X69398D01*
Y111498D01*
X63902D01*
Y109798D01*
X56498D01*
Y117202D01*
X63902D01*
Y115502D01*
X69398D01*
Y117202D01*
X70398D01*
Y118020D01*
X70088D01*
X70039Y117990D01*
G02X67056Y121716I-1280J2033D01*
G03X66773Y122398I-283J282D01*
G01X63221D01*
X60498Y125121D01*
Y127398D01*
X57498D01*
Y134602D01*
X67598D01*
Y135298D01*
X57498D01*
Y136698D01*
X56288D01*
X54284Y138702D01*
G03X53602Y138419I-282J-283D01*
G01Y136598D01*
X51902D01*
Y134502D01*
X53602D01*
Y128498D01*
X46198D01*
Y134502D01*
X47898D01*
Y136598D01*
X46198D01*
Y144002D01*
X53398D01*
Y144998D01*
X46198D01*
Y146498D01*
X35002D01*
Y144998D01*
X27598D01*
Y152402D01*
X35002D01*
Y150902D01*
X46198D01*
Y152402D01*
X53602D01*
Y150902D01*
X54812D01*
X57802Y147912D01*
Y142502D01*
X60298D01*
Y143712D01*
X63488Y146902D01*
X71612D01*
X75102Y143412D01*
Y137412D01*
X76012Y136502D01*
X120988D01*
X121698Y137212D01*
Y143512D01*
X125088Y146902D01*
X126298D01*
Y148302D01*
X136302D01*
Y146902D01*
X138012D01*
X142802Y142112D01*
Y136061D01*
G02X138398I-2202J-961D01*
G01Y140288D01*
X136984Y141702D01*
G03X136302Y141419I-282J-283D01*
G01Y141098D01*
X126102D01*
Y140402D01*
X136302D01*
Y133198D01*
X133302D01*
Y129502D01*
X135002D01*
Y122098D01*
X127598D01*
Y129502D01*
X129298D01*
Y133198D01*
X126298D01*
Y134619D01*
G03X125616Y134902I-400J0D01*
G01X122812Y132098D01*
X74188D01*
X72684Y133602D01*
G03X72002Y133319I-282J-283D01*
G01Y131412D01*
X72412Y131002D01*
X87412D01*
X90702Y127712D01*
Y117302D01*
X91748D01*
Y118588D01*
X91733Y118625D01*
G02X96152Y118589I2217J925D01*
G01Y114638D01*
X92912Y111398D01*
X91502D01*
Y109898D01*
X85498D01*
Y117302D01*
X86298D01*
Y125888D01*
X85588Y126598D01*
X80498D01*
G03X80215Y125916I0J-400D01*
G01X82602Y123529D01*
Y109202D01*
X87402D01*
Y101798D01*
X86402D01*
Y101371D01*
X83855Y98825D01*
G37*
G54D28*
X146300Y18200D03*
G54D25*
X144400Y76700D03*
X13800Y53000D03*
G54D26*
X14200Y14200D03*
X145800Y145800D03*
G54D27*
X17600Y33600D03*
X50000Y10800D03*
X120000Y37300D03*
X118900Y67200D03*
X131300Y116100D03*
%LPD*%
G75*
G54D10*
X13800Y53000D03*
Y76600D03*
X146400Y30500D03*
Y54100D03*
X144400Y76700D03*
Y100300D03*
G54D11*
X30000Y15900D03*
Y23800D03*
Y34100D03*
Y42000D03*
X62500Y131000D03*
Y138900D03*
X121200Y10900D03*
Y18800D03*
X131300Y136800D03*
Y144700D03*
G54D20*
X77500Y75800D03*
G54D12*
X14200Y14200D03*
X145800Y145800D03*
G54D21*
X146300Y18200D03*
G54D22*
G01X50200Y22500D02*
X44100D01*
X37500Y15900D01*
X30000D01*
G01X20000Y91100D02*
X15600D01*
X13800Y89300D01*
Y76600D01*
G01X31300Y148700D02*
X49900D01*
G01X50200Y22500D02*
X76200D01*
G01X62500Y138900D02*
Y142800D01*
X64400Y144700D01*
X70700D01*
X72900Y142500D01*
Y136500D01*
X75100Y134300D01*
X121900D01*
X123900Y136300D01*
Y142600D01*
X126000Y144700D01*
X131300D01*
G01X62500Y138900D02*
X67800D01*
X69800Y136900D01*
Y130500D01*
X71500Y128800D01*
X86500D01*
X88500Y126800D01*
Y113600D01*
G01X62500Y138900D02*
X57200D01*
X55600Y140500D01*
Y147000D01*
X53900Y148700D01*
X49900D01*
G01X94200Y10800D02*
X102200D01*
X105000Y13600D01*
G01X121200Y10900D02*
X112900D01*
X110900Y12900D01*
Y20200D01*
X108600Y22500D01*
X93800D01*
G01X76200D02*
X93800D01*
G01X93950Y119550D02*
Y115550D01*
X92000Y113600D01*
X88500D01*
G01X135050Y30500D02*
Y12900D01*
X133050Y10900D01*
X121200D01*
G01X105000Y62200D02*
X109200Y58000D01*
Y54700D01*
G01X129100Y100300D02*
Y96300D01*
X133700Y91700D01*
Y58500D01*
X130100Y54900D01*
X120000D01*
G01D02*
Y54700D01*
X109200D01*
G01X111500Y80200D02*
X109200D01*
X107700Y78700D01*
X104400D01*
G01X129100Y100300D02*
X144400D01*
G01X129100D02*
Y107500D01*
X124600Y112000D01*
Y123300D01*
X122500Y125400D01*
X117900D01*
G01X104200Y94200D02*
Y103000D01*
G01X109100Y125400D02*
X117900D01*
G01X146400Y30500D02*
X135050D01*
G01X149800Y64700D02*
X146400Y61300D01*
Y54100D01*
G01X140600Y135100D02*
Y141200D01*
X137100Y144700D01*
X131300D01*
G54D13*
X17600Y33600D03*
Y42000D03*
X31300Y148700D03*
Y140300D03*
X67900Y10800D03*
X58400D03*
X50000D03*
X50200Y30900D03*
Y22500D03*
X70300Y60700D03*
X61900D03*
Y91000D03*
X70300D03*
X60200Y105100D03*
Y113500D03*
X49900Y148700D03*
Y140300D03*
X85800Y10800D03*
X94200D03*
X76300D03*
X76200Y30900D03*
Y22500D03*
X93800Y30900D03*
Y22500D03*
X128400Y28100D03*
X120000D03*
Y54900D03*
Y46500D03*
Y37300D03*
X128400D03*
X118900Y89200D03*
X127300D03*
X118900Y78200D03*
X127300D03*
X118900Y67200D03*
X127300D03*
X117900Y117000D03*
X129100Y100300D03*
X120700D03*
X131300Y116100D03*
X117900Y125400D03*
X131300Y125800D03*
X139700Y116100D03*
Y125800D03*
G54D23*
G01X7098Y53000D02*
X13800D01*
G01X17600Y30398D02*
Y33600D01*
G01X14398D02*
X17600D01*
G01D02*
X20802D01*
G01X13800Y48498D02*
Y53000D01*
G01D02*
Y57502D01*
G01Y53000D02*
X20502D01*
G01X50000Y7598D02*
Y10800D01*
G01D02*
Y14002D01*
G01X46798Y10800D02*
X50000D01*
G01X120000Y34098D02*
Y37300D01*
G01D02*
Y40502D01*
G01X116798Y37300D02*
X120000D01*
G01X118900Y63998D02*
Y67200D01*
G01D02*
Y70402D01*
G01X115698Y67200D02*
X118900D01*
G01X131300Y112898D02*
Y116100D01*
G01D02*
Y119302D01*
G01X146300Y13948D02*
Y18200D01*
G01D02*
Y22452D01*
G01X139598Y18200D02*
X146300D01*
G01D02*
X153002D01*
G01X144400Y72198D02*
Y76700D01*
G01D02*
Y81202D01*
G01X137698Y76700D02*
X144400D01*
G01D02*
X151102D01*
G54D14*
X32700Y61200D03*
G54D24*
G01X30000Y34100D02*
Y23800D01*
G01X32700Y61200D02*
Y57300D01*
X34100Y55900D01*
X45000D01*
X46100Y54800D01*
Y50100D01*
G01X30000Y42000D02*
X42000D01*
G01X17600D02*
X30000D01*
G01X42000D02*
Y38200D01*
X40600Y36800D01*
G01X28200Y91100D02*
Y83400D01*
G01X37300D02*
Y87300D01*
X33000Y91600D01*
Y97300D01*
X34900Y99200D01*
X38200D01*
G01X24100Y108400D02*
Y99200D01*
G01X60200Y105100D02*
X35200D01*
X31900Y108400D01*
X24100D01*
G01X23200Y127400D02*
Y108400D01*
X24100D01*
G01X34300Y113000D02*
X43400D01*
G01X41800Y127400D02*
X38000D01*
X36700Y126100D01*
Y124900D01*
X35100Y123300D01*
X31300D01*
G01Y140300D02*
Y131500D01*
G01X46400Y99200D02*
X49568D01*
X50700Y98068D01*
Y54600D01*
X56100Y49200D01*
Y29900D01*
X58400Y27600D01*
G01X67900Y10800D02*
X58400D01*
G01Y17400D02*
Y10800D01*
G01X89700Y50600D02*
Y57800D01*
X86800Y60700D01*
X70300D01*
G01X68000Y42000D02*
Y38400D01*
X66400Y36800D01*
G01X50200Y42000D02*
Y30900D01*
G01X61000Y50100D02*
X72100D01*
G01X61900Y60700D02*
X56800D01*
X55300Y62200D01*
Y71300D01*
G01X45850Y83750D02*
X42300Y87300D01*
Y91100D01*
G01X61900Y91000D02*
X56900D01*
X55300Y89400D01*
Y80400D01*
G01X89500Y86100D02*
X80200D01*
X78600Y87700D01*
Y89400D01*
X77000Y91000D01*
X70300D01*
G01X68300Y105400D02*
Y105100D01*
X60200D01*
G01X49900Y123300D02*
Y114400D01*
X48500Y113000D01*
X43400D01*
G01X60200Y113500D02*
X72400D01*
G01X68759Y120022D02*
X71259D01*
X72400Y118881D01*
Y113500D01*
G01X49900Y123300D02*
X42932D01*
X41800Y124432D01*
Y127400D01*
G01X49900Y140300D02*
Y131500D01*
G01X76500Y105400D02*
X79400D01*
X80600Y106600D01*
Y122700D01*
X78900Y124400D01*
X64050D01*
X62500Y125950D01*
Y131000D01*
G01X76300Y10800D02*
X85800D01*
G01X89700Y50600D02*
X100300D01*
G01X89700Y50100D02*
Y50600D01*
G01X100300D02*
Y70600D01*
G01X101100Y50600D02*
X100300D01*
G01X85600Y42000D02*
Y38200D01*
X84200Y36800D01*
G01X93800Y42000D02*
Y30900D01*
G01X76200Y42000D02*
Y30900D01*
G01X92600Y105500D02*
Y99900D01*
X89500Y96800D01*
Y86100D01*
G01D02*
X100100D01*
G01X100300Y70600D02*
X95200D01*
X93600Y72200D01*
Y78000D01*
G01X85400D02*
X77500D01*
Y75800D01*
G01X92600Y105500D02*
X99400D01*
X101000Y107100D01*
Y121300D01*
G01X81500Y99300D02*
X84400Y102200D01*
Y105500D01*
G01X120000Y28100D02*
Y20000D01*
X121200Y18800D01*
G01X128400Y37300D02*
Y28100D01*
G01X120000Y46500D02*
X109200D01*
G01D02*
Y39473D01*
G01X117900Y117000D02*
Y108600D01*
X113100Y103800D01*
Y87800D01*
X111400Y86100D01*
X108300D01*
G01X108500Y70600D02*
Y65000D01*
X111250Y62250D01*
G01X127300Y89200D02*
Y93000D01*
X127200Y93100D01*
Y93200D01*
X125600Y94800D01*
X122400D01*
X120700Y96500D01*
Y100300D01*
G01X118900Y89200D02*
Y78200D01*
G01X127300D02*
Y67200D01*
G01X109100Y117200D02*
Y117000D01*
X117900D01*
G01X139700Y125800D02*
Y116100D01*
G01X131300Y136800D02*
Y125800D01*
G54D15*
X42000Y42000D03*
X42300Y91100D03*
X20000D03*
X28200D03*
X38200Y99200D03*
X24100D03*
X72100Y50100D03*
X68000Y42000D03*
X46100Y50100D03*
X50200Y42000D03*
X72400Y113500D03*
X68300Y105400D03*
X46400Y99200D03*
X89700Y50100D03*
X85600Y42000D03*
X93800D03*
X76200D03*
X100300Y70600D03*
X100100Y86100D03*
X89500D03*
X85400Y78000D03*
X93600D03*
X88500Y113600D03*
X84400Y105500D03*
X92600D03*
X76500Y105400D03*
X104400Y78700D03*
X108500Y70600D03*
X108300Y86100D03*
X104200Y94200D03*
G54D16*
X40600Y36800D03*
X34300Y113000D03*
X58400Y17400D03*
Y27600D03*
X66400Y36800D03*
X61000Y50100D03*
X45850Y83750D03*
X68759Y120022D03*
X84200Y36800D03*
X81500Y99300D03*
X93950Y119550D03*
X105000Y13600D03*
X109200Y39473D03*
X111250Y62250D03*
X105000Y62200D03*
X111500Y80200D03*
X104200Y103000D03*
X135050Y30500D03*
X149800Y64700D03*
X140600Y135100D03*
G54D17*
X37300Y83400D03*
X28200D03*
X55300Y80400D03*
Y71300D03*
G54D18*
X24100Y108400D03*
X43400Y113000D03*
G54D19*
X41800Y127400D03*
X23200D03*
X31300Y123300D03*
Y131500D03*
X49900Y123300D03*
Y131500D03*
X101100Y50600D03*
X101000Y121300D03*
X109200Y46500D03*
Y54700D03*
X109100Y117200D03*
Y125400D03*
M02*
